<?xml version="1.0" encoding="utf-8"?>
<!-- Generator: Adobe Illustrator 22.0.1, SVG Export Plug-In . SVG Version: 6.00 Build 0)  -->
<svg version="1.1" id="pr0gramm-logo" xmlns="http://www.w3.org/2000/svg" xmlns:xlink="http://www.w3.org/1999/xlink" x="0px"
	 y="0px" viewBox="0 0 156 30" style="enable-background:new 0 0 156 30;" xml:space="preserve">
<style type="text/css">
	.st0{fill:#0CF40C;}
	.st1{fill:#0BE1F7;}
	.st2{fill:#F90808;}
	.st3{fill:#0606FC;}
	.st4{fill:#161618;}
	.st5{fill:#FFFFFF;}
	.st6{fill:#D23C22;}
	.st7{display:none;}
	.st8{display:inline;fill:#FFFFFF;}
	.st9{display:none;fill:#161618;}
	.st10{fill:none;}
	.st11{display:none;fill:#FFFFFF;}
	.st12{font-family:'CasperBold';}
	.st13{font-size:17px;}
	.st14{display:none;fill:#E31F1E;}
</style>
<path id="pr0gramm-logo-type_4_" class="st0" d="M30.1,20.8V5.5h7.5c0.8,0,1.4,0.1,2,0.3c0.5,0.2,1,0.6,1.3,1
	c0.4,0.4,0.7,0.9,0.9,1.5s0.3,1.2,0.3,1.9c0,0.7-0.1,1.4-0.3,2c-0.2,0.6-0.5,1.1-0.8,1.6c-0.4,0.4-0.8,0.8-1.4,1
	c-0.6,0.3-1.2,0.4-2,0.4h-5v5.6H30.1z M32.6,7.7v5.2h4.2c0.9,0,1.7-0.2,2.1-0.7c0.5-0.4,0.7-1.1,0.7-2c0-0.9-0.3-1.5-0.7-1.9
	c-0.5-0.4-1.2-0.6-2.1-0.6H32.6z M48.8,15.1c-0.1-0.3-0.4-0.4-0.6-0.5c-0.3-0.1-0.5-0.1-0.7-0.1H46v6.3h-2.5V5.5h7.2
	c0.7,0,1.3,0.1,1.8,0.3c0.6,0.2,1,0.5,1.4,0.9C54.3,7,54.6,7.5,54.8,8c0.2,0.6,0.4,1.2,0.4,1.8c0,1.4-0.4,2.4-1.1,3.3
	c-0.6,0.8-1.6,1.3-2.8,1.4l2.9,3.7c0.2,0.2,0.5,0.4,0.6,0.5c0.2,0.1,0.5,0.2,0.9,0.2v1.9c-0.2,0-0.3,0.1-0.5,0.1
	C54.9,21,54.8,21,54.6,21c-0.5,0-0.9-0.1-1.2-0.4c-0.4-0.3-0.7-0.6-0.9-1L48.8,15.1z M46,12.2h4.1c1,0,1.6-0.2,2-0.5
	c0.4-0.4,0.6-1,0.6-1.9c0-0.7-0.2-1.2-0.6-1.5c-0.3-0.4-0.9-0.6-1.7-0.6H46V12.2z M65.8,13.1c0-0.5,0-1-0.1-1.7
	c-0.1-0.6-0.2-1.1-0.4-1.7c-0.2-0.5-0.4-1-0.8-1.3c-0.4-0.4-0.9-0.6-1.6-0.6c-0.7,0-1.2,0.2-1.6,0.6c-0.4,0.3-0.7,0.7-0.9,1.3
	c-0.2,0.5-0.3,1.1-0.3,1.7C60,12,60,12.6,60,13.1c0,0.6,0,1.2,0,1.8c0.1,0.6,0.2,1.2,0.4,1.8c0.2,0.5,0.5,1,0.9,1.4
	c0.4,0.4,0.9,0.5,1.6,0.5c0.6,0,1.2-0.1,1.6-0.5c0.3-0.4,0.6-0.9,0.8-1.4c0.2-0.6,0.3-1.2,0.4-1.8S65.8,13.7,65.8,13.1L65.8,13.1z
	 M62.9,5.5c0.7,0,1.4,0.1,1.9,0.3c0.6,0.2,1.1,0.5,1.5,0.9s0.7,0.8,0.9,1.4c0.3,0.5,0.5,1,0.6,1.6c0.2,0.5,0.2,1.1,0.3,1.7
	c0,0.6,0.1,1.2,0.1,1.7c0,0.9-0.1,1.8-0.2,2.7c-0.2,0.9-0.4,1.8-0.8,2.5c-0.4,0.8-0.9,1.4-1.6,2C64.9,20.8,64,21,62.8,21
	c-1.1,0-2-0.2-2.7-0.8c-0.7-0.5-1.2-1.1-1.6-1.9c-0.4-0.8-0.6-1.6-0.8-2.5c-0.1-1-0.2-1.8-0.2-2.7c0-0.8,0.1-1.7,0.2-2.6
	c0.2-0.9,0.4-1.7,0.8-2.5c0.4-0.7,0.9-1.3,1.6-1.8S61.7,5.5,62.9,5.5L62.9,5.5z M80.7,8.8c-0.5-0.5-1-0.8-1.6-1
	c-0.5-0.2-1.1-0.3-1.8-0.3c-0.9,0-1.7,0.1-2.3,0.4c-0.6,0.2-1.1,0.6-1.5,1c-0.4,0.5-0.7,1.1-0.9,1.7c-0.1,0.7-0.2,1.4-0.2,2.3v0.5
	c0,1.7,0.4,3,1.3,3.9c0.8,0.9,2.2,1.4,4,1.4c0.4,0,0.9,0,1.3-0.1c0.4-0.2,0.8-0.3,1.1-0.4v-3.1h-2.8v-2.3h5.2v6.9
	c-0.7,0.4-1.5,0.7-2.3,0.9c-0.9,0.3-1.8,0.4-2.6,0.4c-1.2,0-2.3-0.2-3.2-0.5c-1-0.3-1.8-0.8-2.4-1.5c-0.7-0.6-1.2-1.4-1.6-2.4
	c-0.3-0.9-0.5-2-0.5-3.2v-0.5c0-1.2,0.1-2.2,0.5-3.2c0.3-0.9,0.8-1.7,1.4-2.4s1.4-1.2,2.3-1.6c0.9-0.3,2-0.5,3.2-0.5
	c1,0,2,0.2,2.9,0.5c0.9,0.3,1.7,0.8,2.3,1.6L80.7,8.8z M90.2,15.1c-0.1-0.3-0.3-0.4-0.6-0.5c-0.2-0.1-0.5-0.1-0.7-0.1h-1.5v6.3h-2.5
	V5.5h7.3c0.6,0,1.2,0.1,1.7,0.3c0.6,0.2,1,0.5,1.4,0.9C95.7,7,96,7.5,96.2,8c0.3,0.6,0.4,1.2,0.4,1.8c0,1.4-0.4,2.4-1,3.3
	c-0.7,0.8-1.6,1.3-2.9,1.4l2.9,3.7c0.3,0.2,0.5,0.4,0.7,0.5s0.4,0.2,0.8,0.2v1.9c-0.1,0-0.3,0.1-0.5,0.1C96.4,21,96.2,21,96,21
	c-0.4,0-0.8-0.1-1.2-0.4c-0.3-0.3-0.6-0.6-0.9-1L90.2,15.1z M87.4,12.2h4.1c1,0,1.6-0.2,2-0.5c0.4-0.4,0.6-1,0.6-1.9
	c0-0.7-0.2-1.2-0.5-1.5c-0.4-0.4-1-0.6-1.8-0.6h-4.4V12.2z M103.4,14.2h4.6l-2-5.1l-0.3-1.7l-0.4,1.7L103.4,14.2z M102.7,16.4
	l-1.6,4.4h-2.6l5.7-15.3h2.9l6,15.3h-2.6l-1.6-4.4H102.7z M114.8,20.8V5.5h3.4l4.2,10.7l4.3-10.7h3.3v15.3h-2.5V9.2l-3.9,9.7h-2.4
	L117.3,9v11.8H114.8z M132.7,20.8V5.5h3.3l4.3,10.7l4.3-10.7h3.3v15.3h-2.5V9.2l-3.9,9.7h-2.4L135.2,9v11.8H132.7z"/>
<path id="pr0gramm-logo-type_3_" class="st1" d="M30.6,23.3V8h7.5c0.8,0,1.4,0.1,2,0.3c0.5,0.2,1,0.6,1.3,1c0.4,0.4,0.7,0.9,0.9,1.5
	s0.3,1.2,0.3,1.9c0,0.7-0.1,1.4-0.3,2c-0.2,0.6-0.5,1.1-0.8,1.6c-0.4,0.4-0.8,0.8-1.4,1c-0.6,0.3-1.2,0.4-2,0.4h-5v5.6H30.6z
	 M33.1,10.2v5.2h4.2c0.9,0,1.7-0.2,2.1-0.7c0.5-0.4,0.7-1.1,0.7-2c0-0.9-0.3-1.5-0.7-1.9c-0.5-0.4-1.2-0.6-2.1-0.6H33.1z M49.3,17.6
	c-0.1-0.3-0.4-0.4-0.6-0.5C48.4,17,48.2,17,48,17h-1.5v6.3H44V8h7.2c0.7,0,1.3,0.1,1.8,0.3c0.6,0.2,1,0.5,1.4,0.9
	c0.4,0.3,0.7,0.8,0.9,1.3c0.2,0.6,0.4,1.2,0.4,1.8c0,1.4-0.4,2.4-1.1,3.3C54,16.4,53,16.9,51.8,17l2.9,3.7c0.2,0.2,0.5,0.4,0.6,0.5
	c0.2,0.1,0.5,0.2,0.9,0.2v1.9c-0.2,0-0.3,0.1-0.5,0.1c-0.3,0.1-0.4,0.1-0.6,0.1c-0.5,0-0.9-0.1-1.2-0.4c-0.4-0.3-0.7-0.6-0.9-1
	L49.3,17.6z M46.5,14.7h4.1c1,0,1.6-0.2,2-0.5c0.4-0.4,0.6-1,0.6-1.9c0-0.7-0.2-1.2-0.6-1.5c-0.3-0.4-0.9-0.6-1.7-0.6h-4.4V14.7z
	 M66.3,15.6c0-0.5,0-1-0.1-1.7c-0.1-0.6-0.2-1.1-0.4-1.7c-0.2-0.5-0.4-1-0.8-1.3c-0.4-0.4-0.9-0.6-1.6-0.6c-0.7,0-1.2,0.2-1.6,0.6
	c-0.4,0.3-0.7,0.7-0.9,1.3c-0.2,0.5-0.3,1.1-0.3,1.7c-0.1,0.6-0.1,1.2-0.1,1.7c0,0.6,0,1.2,0,1.8c0.1,0.6,0.2,1.2,0.4,1.8
	c0.2,0.5,0.5,1,0.9,1.4c0.4,0.4,0.9,0.5,1.6,0.5c0.6,0,1.2-0.1,1.6-0.5c0.3-0.4,0.6-0.9,0.8-1.4c0.2-0.6,0.3-1.2,0.4-1.8
	S66.3,16.2,66.3,15.6L66.3,15.6z M63.4,8c0.7,0,1.4,0.1,1.9,0.3c0.6,0.2,1.1,0.5,1.5,0.9c0.4,0.4,0.7,0.8,0.9,1.4
	c0.3,0.5,0.5,1,0.6,1.6c0.2,0.5,0.2,1.1,0.3,1.7c0,0.6,0.1,1.2,0.1,1.7c0,0.9-0.1,1.8-0.2,2.7c-0.2,0.9-0.4,1.8-0.8,2.5
	c-0.4,0.8-0.9,1.4-1.6,2c-0.7,0.5-1.6,0.7-2.8,0.7c-1.1,0-2-0.2-2.7-0.8c-0.7-0.5-1.2-1.1-1.6-1.9c-0.4-0.8-0.6-1.6-0.8-2.5
	c-0.1-1-0.2-1.8-0.2-2.7c0-0.8,0.1-1.7,0.2-2.6c0.2-0.9,0.4-1.7,0.8-2.5c0.4-0.7,0.9-1.3,1.6-1.8S62.2,8,63.4,8L63.4,8z M81.2,11.3
	c-0.5-0.5-1-0.8-1.6-1c-0.5-0.2-1.1-0.3-1.8-0.3c-0.9,0-1.7,0.1-2.3,0.4c-0.6,0.2-1.1,0.6-1.5,1c-0.4,0.5-0.7,1.1-0.9,1.7
	c-0.1,0.7-0.2,1.4-0.2,2.3v0.5c0,1.7,0.4,3,1.3,3.9c0.8,0.9,2.2,1.4,4,1.4c0.4,0,0.9,0,1.3-0.1c0.4-0.2,0.8-0.3,1.1-0.4v-3.1h-2.8
	v-2.3H83v6.9c-0.7,0.4-1.5,0.7-2.3,0.9c-0.9,0.3-1.8,0.4-2.6,0.4c-1.2,0-2.3-0.2-3.2-0.5c-1-0.3-1.8-0.8-2.4-1.5
	c-0.7-0.6-1.2-1.4-1.6-2.4c-0.3-0.9-0.5-2-0.5-3.2v-0.5c0-1.2,0.1-2.2,0.5-3.2c0.3-0.9,0.8-1.7,1.4-2.4s1.4-1.2,2.3-1.6
	c0.9-0.3,2-0.5,3.2-0.5c1,0,2,0.2,2.9,0.5S82.4,9,83,9.8L81.2,11.3z M90.7,17.6c-0.1-0.3-0.3-0.4-0.6-0.5C89.9,17,89.6,17,89.4,17
	h-1.5v6.3h-2.5V8h7.3c0.6,0,1.2,0.1,1.7,0.3c0.6,0.2,1,0.5,1.4,0.9c0.4,0.3,0.7,0.8,0.9,1.3c0.3,0.6,0.4,1.2,0.4,1.8
	c0,1.4-0.4,2.4-1,3.3c-0.7,0.8-1.6,1.3-2.9,1.4l2.9,3.7c0.3,0.2,0.5,0.4,0.7,0.5s0.4,0.2,0.8,0.2v1.9c-0.1,0-0.3,0.1-0.5,0.1
	c-0.2,0.1-0.4,0.1-0.6,0.1c-0.4,0-0.8-0.1-1.2-0.4c-0.3-0.3-0.6-0.6-0.9-1L90.7,17.6z M87.9,14.7H92c1,0,1.6-0.2,2-0.5
	c0.4-0.4,0.6-1,0.6-1.9c0-0.7-0.2-1.2-0.5-1.5c-0.4-0.4-1-0.6-1.8-0.6h-4.4V14.7z M103.9,16.7h4.6l-2-5.1l-0.3-1.7l-0.4,1.7
	L103.9,16.7z M103.2,18.9l-1.6,4.4H99L104.7,8h2.9l6,15.3H111l-1.6-4.4H103.2z M115.3,23.3V8h3.4l4.2,10.7L127.2,8h3.3v15.3H128
	V11.7l-3.9,9.7h-2.4l-3.9-9.9v11.8H115.3z M133.2,23.3V8h3.3l4.3,10.7L145.1,8h3.3v15.3h-2.5V11.7l-3.9,9.7h-2.4l-3.9-9.9v11.8
	H133.2z"/>
<path id="pr0gramm-logo-type_2_" class="st2" d="M32.4,20.8V5.5h7.5c0.8,0,1.4,0.1,2,0.3c0.5,0.2,1,0.6,1.3,1
	c0.4,0.4,0.7,0.9,0.9,1.5s0.3,1.2,0.3,1.9c0,0.7-0.1,1.4-0.3,2c-0.2,0.6-0.5,1.1-0.8,1.6c-0.4,0.4-0.8,0.8-1.4,1
	c-0.6,0.3-1.2,0.4-2,0.4h-5v5.6H32.4z M34.9,7.7v5.2h4.2c0.9,0,1.7-0.2,2.1-0.7c0.5-0.4,0.7-1.1,0.7-2c0-0.9-0.3-1.5-0.7-1.9
	c-0.5-0.4-1.2-0.6-2.1-0.6H34.9z M51.1,15.1c-0.1-0.3-0.4-0.4-0.6-0.5c-0.3-0.1-0.5-0.1-0.7-0.1h-1.5v6.3h-2.5V5.5H53
	c0.7,0,1.3,0.1,1.8,0.3c0.6,0.2,1,0.5,1.4,0.9C56.6,7,56.9,7.5,57.1,8c0.2,0.6,0.4,1.2,0.4,1.8c0,1.4-0.4,2.4-1.1,3.3
	c-0.6,0.8-1.6,1.3-2.8,1.4l2.9,3.7c0.2,0.2,0.5,0.4,0.6,0.5c0.2,0.1,0.5,0.2,0.9,0.2v1.9c-0.2,0-0.3,0.1-0.5,0.1
	C57.2,21,57.1,21,56.9,21c-0.5,0-0.9-0.1-1.2-0.4c-0.4-0.3-0.7-0.6-0.9-1L51.1,15.1z M48.3,12.2h4.1c1,0,1.6-0.2,2-0.5
	c0.4-0.4,0.6-1,0.6-1.9c0-0.7-0.2-1.2-0.6-1.5c-0.3-0.4-0.9-0.6-1.7-0.6h-4.4V12.2z M68.1,13.1c0-0.5,0-1-0.1-1.7
	c-0.1-0.6-0.2-1.1-0.4-1.7c-0.2-0.5-0.4-1-0.8-1.3c-0.4-0.4-0.9-0.6-1.6-0.6c-0.7,0-1.2,0.2-1.6,0.6c-0.4,0.3-0.7,0.7-0.9,1.3
	c-0.2,0.5-0.3,1.1-0.3,1.7c-0.1,0.6-0.1,1.2-0.1,1.7c0,0.6,0,1.2,0,1.8c0.1,0.6,0.2,1.2,0.4,1.8c0.2,0.5,0.5,1,0.9,1.4
	c0.4,0.4,0.9,0.5,1.6,0.5c0.6,0,1.2-0.1,1.6-0.5c0.3-0.4,0.6-0.9,0.8-1.4c0.2-0.6,0.3-1.2,0.4-1.8S68.1,13.7,68.1,13.1L68.1,13.1z
	 M65.2,5.5c0.7,0,1.4,0.1,1.9,0.3c0.6,0.2,1.1,0.5,1.5,0.9s0.7,0.8,0.9,1.4c0.3,0.5,0.5,1,0.6,1.6c0.2,0.5,0.2,1.1,0.3,1.7
	c0,0.6,0.1,1.2,0.1,1.7c0,0.9-0.1,1.8-0.2,2.7c-0.2,0.9-0.4,1.8-0.8,2.5c-0.4,0.8-0.9,1.4-1.6,2c-0.7,0.5-1.6,0.7-2.8,0.7
	c-1.1,0-2-0.2-2.7-0.8c-0.7-0.5-1.2-1.1-1.6-1.9c-0.4-0.8-0.6-1.6-0.8-2.5c-0.1-1-0.2-1.8-0.2-2.7c0-0.8,0.1-1.7,0.2-2.6
	c0.2-0.9,0.4-1.7,0.8-2.5c0.4-0.7,0.9-1.3,1.6-1.8S64,5.5,65.2,5.5L65.2,5.5z M83,8.8c-0.5-0.5-1-0.8-1.6-1
	c-0.5-0.2-1.1-0.3-1.8-0.3c-0.9,0-1.7,0.1-2.3,0.4c-0.6,0.2-1.1,0.6-1.5,1c-0.4,0.5-0.7,1.1-0.9,1.7c-0.1,0.7-0.2,1.4-0.2,2.3v0.5
	c0,1.7,0.4,3,1.3,3.9c0.8,0.9,2.2,1.4,4,1.4c0.4,0,0.9,0,1.3-0.1c0.4-0.2,0.8-0.3,1.1-0.4v-3.1h-2.8v-2.3h5.2v6.9
	c-0.7,0.4-1.5,0.7-2.3,0.9c-0.9,0.3-1.8,0.4-2.6,0.4c-1.2,0-2.3-0.2-3.2-0.5c-1-0.3-1.8-0.8-2.4-1.5c-0.7-0.6-1.2-1.4-1.6-2.4
	c-0.3-0.9-0.5-2-0.5-3.2v-0.5c0-1.2,0.1-2.2,0.5-3.2C73,8.8,73.5,8,74.1,7.3s1.4-1.2,2.3-1.6c0.9-0.3,2-0.5,3.2-0.5
	c1,0,2,0.2,2.9,0.5c0.9,0.3,1.7,0.8,2.3,1.6L83,8.8z M92.5,15.1c-0.1-0.3-0.3-0.4-0.6-0.5c-0.2-0.1-0.5-0.1-0.7-0.1h-1.5v6.3h-2.5
	V5.5h7.3c0.6,0,1.2,0.1,1.7,0.3c0.6,0.2,1,0.5,1.4,0.9C98,7,98.3,7.5,98.5,8c0.3,0.6,0.4,1.2,0.4,1.8c0,1.4-0.4,2.4-1,3.3
	c-0.7,0.8-1.6,1.3-2.9,1.4l2.9,3.7c0.3,0.2,0.5,0.4,0.7,0.5s0.4,0.2,0.8,0.2v1.9c-0.1,0-0.3,0.1-0.5,0.1C98.7,21,98.5,21,98.3,21
	c-0.4,0-0.8-0.1-1.2-0.4c-0.3-0.3-0.6-0.6-0.9-1L92.5,15.1z M89.7,12.2h4.1c1,0,1.6-0.2,2-0.5c0.4-0.4,0.6-1,0.6-1.9
	c0-0.7-0.2-1.2-0.5-1.5c-0.4-0.4-1-0.6-1.8-0.6h-4.4V12.2z M105.7,14.2h4.6l-2-5.1L108,7.4l-0.4,1.7L105.7,14.2z M105,16.4l-1.6,4.4
	h-2.6l5.7-15.3h2.9l6,15.3h-2.6l-1.6-4.4H105z M117.1,20.8V5.5h3.4l4.2,10.7L129,5.5h3.3v15.3h-2.5V9.2l-3.9,9.7h-2.4L119.6,9v11.8
	H117.1z M135,20.8V5.5h3.3l4.3,10.7l4.3-10.7h3.3v15.3h-2.5V9.2l-3.9,9.7h-2.4L137.5,9v11.8H135z"/>
<path id="pr0gramm-logo-type_1_" class="st3" d="M31.9,23.4V8.1h7.5c0.8,0,1.4,0.1,2,0.3c0.5,0.2,1,0.6,1.3,1
	c0.4,0.4,0.7,0.9,0.9,1.5s0.3,1.2,0.3,1.9c0,0.7-0.1,1.4-0.3,2c-0.2,0.6-0.5,1.1-0.8,1.6c-0.4,0.4-0.8,0.8-1.4,1
	c-0.6,0.3-1.2,0.4-2,0.4h-5v5.6H31.9z M34.4,10.3v5.2h4.2c0.9,0,1.7-0.2,2.1-0.7c0.5-0.4,0.7-1.1,0.7-2c0-0.9-0.3-1.5-0.7-1.9
	c-0.5-0.4-1.2-0.6-2.1-0.6H34.4z M50.6,17.7c-0.1-0.3-0.4-0.4-0.6-0.5c-0.3-0.1-0.5-0.1-0.7-0.1h-1.5v6.3h-2.5V8.1h7.2
	c0.7,0,1.3,0.1,1.8,0.3c0.6,0.2,1,0.5,1.4,0.9c0.4,0.3,0.7,0.8,0.9,1.3c0.2,0.6,0.4,1.2,0.4,1.8c0,1.4-0.4,2.4-1.1,3.3
	c-0.6,0.8-1.6,1.3-2.8,1.4l2.9,3.7c0.2,0.2,0.5,0.4,0.6,0.5c0.2,0.1,0.5,0.2,0.9,0.2v1.9c-0.2,0-0.3,0.1-0.5,0.1
	c-0.3,0.1-0.4,0.1-0.6,0.1c-0.5,0-0.9-0.1-1.2-0.4c-0.4-0.3-0.7-0.6-0.9-1L50.6,17.7z M47.8,14.8h4.1c1,0,1.6-0.2,2-0.5
	c0.4-0.4,0.6-1,0.6-1.9c0-0.7-0.2-1.2-0.6-1.5c-0.3-0.4-0.9-0.6-1.7-0.6h-4.4V14.8z M67.6,15.7c0-0.5,0-1-0.1-1.7
	c-0.1-0.6-0.2-1.1-0.4-1.7c-0.2-0.5-0.4-1-0.8-1.3c-0.4-0.4-0.9-0.6-1.6-0.6c-0.7,0-1.2,0.2-1.6,0.6c-0.4,0.3-0.7,0.7-0.9,1.3
	c-0.2,0.5-0.3,1.1-0.3,1.7c-0.1,0.6-0.1,1.2-0.1,1.7c0,0.6,0,1.2,0,1.8c0.1,0.6,0.2,1.2,0.4,1.8c0.2,0.5,0.5,1,0.9,1.4
	s0.9,0.5,1.6,0.5c0.6,0,1.2-0.1,1.6-0.5c0.3-0.4,0.6-0.9,0.8-1.4c0.2-0.6,0.3-1.2,0.4-1.8C67.6,16.9,67.6,16.3,67.6,15.7L67.6,15.7z
	 M64.7,8.1c0.7,0,1.4,0.1,1.9,0.3c0.6,0.2,1.1,0.5,1.5,0.9c0.4,0.4,0.7,0.8,0.9,1.4c0.3,0.5,0.5,1,0.6,1.6c0.2,0.5,0.2,1.1,0.3,1.7
	c0,0.6,0.1,1.2,0.1,1.7c0,0.9-0.1,1.8-0.2,2.7c-0.2,0.9-0.4,1.8-0.8,2.5c-0.4,0.8-0.9,1.4-1.6,2c-0.7,0.5-1.6,0.7-2.8,0.7
	c-1.1,0-2-0.2-2.7-0.8c-0.7-0.5-1.2-1.1-1.6-1.9c-0.4-0.8-0.6-1.6-0.8-2.5c-0.1-1-0.2-1.8-0.2-2.7c0-0.8,0.1-1.7,0.2-2.6
	c0.2-0.9,0.4-1.7,0.8-2.5c0.4-0.7,0.9-1.3,1.6-1.8S63.5,8.1,64.7,8.1L64.7,8.1z M82.5,11.4c-0.5-0.5-1-0.8-1.6-1
	c-0.5-0.2-1.1-0.3-1.8-0.3c-0.9,0-1.7,0.1-2.3,0.4c-0.6,0.2-1.1,0.6-1.5,1c-0.4,0.5-0.7,1.1-0.9,1.7c-0.1,0.7-0.2,1.4-0.2,2.3V16
	c0,1.7,0.4,3,1.3,3.9c0.8,0.9,2.2,1.4,4,1.4c0.4,0,0.9,0,1.3-0.1c0.4-0.2,0.8-0.3,1.1-0.4v-3.1h-2.8v-2.3h5.2v6.9
	c-0.7,0.4-1.5,0.7-2.3,0.9c-0.9,0.3-1.8,0.4-2.6,0.4c-1.2,0-2.3-0.2-3.2-0.5c-1-0.3-1.8-0.8-2.4-1.5c-0.7-0.6-1.2-1.4-1.6-2.4
	c-0.3-0.9-0.5-2-0.5-3.2v-0.5c0-1.2,0.1-2.2,0.5-3.2c0.3-0.9,0.8-1.7,1.4-2.4s1.4-1.2,2.3-1.6c0.9-0.3,2-0.5,3.2-0.5
	c1,0,2,0.2,2.9,0.5c0.9,0.3,1.7,0.8,2.3,1.6L82.5,11.4z M92,17.7c-0.1-0.3-0.3-0.4-0.6-0.5c-0.2-0.1-0.5-0.1-0.7-0.1h-1.5v6.3h-2.5
	V8.1H94c0.6,0,1.2,0.1,1.7,0.3c0.6,0.2,1,0.5,1.4,0.9c0.4,0.3,0.7,0.8,0.9,1.3c0.3,0.6,0.4,1.2,0.4,1.8c0,1.4-0.4,2.4-1,3.3
	c-0.7,0.8-1.6,1.3-2.9,1.4l2.9,3.7c0.3,0.2,0.5,0.4,0.7,0.5c0.2,0.1,0.4,0.2,0.8,0.2v1.9c-0.1,0-0.3,0.1-0.5,0.1
	c-0.2,0.1-0.4,0.1-0.6,0.1c-0.4,0-0.8-0.1-1.2-0.4c-0.3-0.3-0.6-0.6-0.9-1L92,17.7z M89.2,14.8h4.1c1,0,1.6-0.2,2-0.5
	c0.4-0.4,0.6-1,0.6-1.9c0-0.7-0.2-1.2-0.5-1.5c-0.4-0.4-1-0.6-1.8-0.6h-4.4V14.8z M105.2,16.8h4.6l-2-5.1l-0.3-1.7l-0.4,1.7
	L105.2,16.8z M104.5,19l-1.6,4.4h-2.6L106,8.1h2.9l6,15.3h-2.6l-1.6-4.4H104.5z M116.6,23.4V8.1h3.4l4.2,10.7l4.3-10.7h3.3v15.3
	h-2.5V11.8l-3.9,9.7H123l-3.9-9.9v11.8H116.6z M134.5,23.4V8.1h3.3l4.3,10.7l4.3-10.7h3.3v15.3h-2.5V11.8l-3.9,9.7h-2.4l-3.9-9.9
	v11.8H134.5z"/>
<g>
	<path class="st4" d="M29.6,5.3h14.5v1.2c0,0.8-0.3,1.4-0.8,2L33.2,20.2L32,21.3h12.4v2.8H28.3v-1.2c0-0.7,0.3-1.4,0.8-2l9.5-11.1
		l2-1.6H28.7L29.6,5.3z"/>
	<path class="st4" d="M61.1,24.1H47.4V5.3h13.8l-0.9,2.8h-9.9v4.6h9v2.9h-9v5.7h10.7V24.1z"/>
	<path class="st4" d="M64.1,24.1V5.3h3.7l8.7,14.1V5.3h3.1v18.8H76L67.1,9.7v14.4H64.1z"/>
	<path class="st4" d="M82.8,10.1c0-0.9,0.2-1.7,0.6-2.4c0.4-0.6,1-1.2,1.7-1.6c0.7-0.4,1.4-0.7,2.3-0.9C88.2,5.1,89,5,89.8,5
		c0.6,0,1.2,0.1,1.7,0.2c0.6,0.1,1.2,0.3,1.7,0.5c0.6,0.2,1.1,0.5,1.6,0.8c0.5,0.3,0.9,0.7,1.3,1.1l-2.1,1.9
		c-0.6-0.6-1.3-1.1-2.1-1.3c-0.7-0.2-1.6-0.4-2.5-0.4c-0.4,0-0.8,0-1.3,0.1c-0.4,0.1-0.8,0.2-1.2,0.4S86.5,8.7,86.2,9
		c-0.2,0.3-0.3,0.6-0.3,1c0,0.5,0.1,0.8,0.2,1.1c0.1,0.3,0.3,0.5,0.5,0.7c0.2,0.2,0.5,0.3,0.8,0.5c0.3,0.1,0.6,0.3,1,0.4
		c0.9,0.3,1.7,0.5,2.6,0.7s1.7,0.5,2.6,0.9c0.9,0.5,1.7,1,2.3,1.8c0.6,0.7,0.9,1.7,0.9,2.9c0,1-0.2,1.9-0.6,2.6
		c-0.4,0.7-1,1.3-1.7,1.7c-0.7,0.4-1.5,0.7-2.3,0.9c-0.9,0.2-1.7,0.3-2.6,0.3c-0.8,0-1.5-0.1-2.2-0.3s-1.4-0.4-2.1-0.8
		c-0.7-0.3-1.3-0.8-1.8-1.3s-1-1.1-1.4-1.8l2.5-1.3c0.5,0.8,1.2,1.4,2,1.9c0.8,0.4,1.8,0.7,3,0.7c0.5,0,1,0,1.5-0.1
		c0.5-0.1,0.9-0.2,1.3-0.4c0.4-0.2,0.7-0.5,0.9-0.8c0.2-0.3,0.4-0.7,0.4-1.2c0-0.4-0.1-0.8-0.2-1c-0.1-0.3-0.3-0.5-0.5-0.7
		s-0.5-0.3-0.8-0.5c-0.3-0.1-0.6-0.2-1-0.4c-0.9-0.3-1.8-0.6-2.7-0.8c-0.9-0.2-1.8-0.5-2.6-0.9c-0.5-0.2-0.9-0.5-1.3-0.7
		c-0.4-0.3-0.7-0.6-1-0.9c-0.3-0.4-0.5-0.8-0.6-1.3C82.8,11.3,82.8,10.8,82.8,10.1z"/>
	<path class="st4" d="M102.4,5.3v18.8h-3.1V5.3H102.4z"/>
	<path class="st4" d="M119.5,24.1h-13.7V5.3h13.8l-0.9,2.8h-9.9v4.6h9v2.9h-9v5.7h10.7V24.1z"/>
	<path class="st4" d="M128.9,17.1c-0.2-0.3-0.5-0.4-0.8-0.5c-0.3-0.1-0.6-0.2-0.9-0.2h-1.8v7.7h-3.1V5.3h8.9c0.8,0,1.5,0.1,2.2,0.4
		c0.7,0.3,1.2,0.6,1.7,1.1c0.5,0.5,0.8,1,1.1,1.7c0.3,0.7,0.4,1.4,0.4,2.2c0,1.6-0.4,2.9-1.2,4c-0.8,1-2,1.6-3.5,1.7l3.6,4.5
		c0.3,0.4,0.5,0.6,0.8,0.7c0.2,0.1,0.6,0.2,1,0.2v2.3c-0.2,0.1-0.4,0.2-0.6,0.2c-0.3,0.1-0.5,0.1-0.7,0.1c-0.5,0-1-0.2-1.5-0.6
		c-0.4-0.4-0.8-0.8-1.1-1.1L128.9,17.1z M125.4,13.6h5c1.2,0,2-0.2,2.4-0.6c0.5-0.4,0.7-1.2,0.7-2.3c0-0.9-0.2-1.5-0.6-1.9
		c-0.4-0.4-1.1-0.6-2.2-0.6h-5.4V13.6z"/>
	<path class="st4" d="M147.9,8.2v15.9h-3.1V8.2h-5.9V5.3h15.2l-0.9,2.8H147.9z"/>
</g>
<path id="pr0gramm-logo-type" class="st5" d="M31.3,22V6.7h7.5c0.8,0,1.4,0.1,2,0.3c0.5,0.2,1,0.6,1.3,1c0.4,0.4,0.7,0.9,0.9,1.5
	s0.3,1.2,0.3,1.9c0,0.7-0.1,1.4-0.3,2c-0.2,0.6-0.5,1.1-0.8,1.6c-0.4,0.4-0.8,0.8-1.4,1c-0.6,0.3-1.2,0.4-2,0.4h-5V22H31.3z
	 M33.8,8.9v5.2H38c0.9,0,1.7-0.2,2.1-0.7c0.5-0.4,0.7-1.1,0.7-2c0-0.9-0.3-1.5-0.7-1.9c-0.5-0.4-1.2-0.6-2.1-0.6H33.8z M50,16.3
	c-0.1-0.3-0.4-0.4-0.6-0.5c-0.3-0.1-0.5-0.1-0.7-0.1h-1.5V22h-2.5V6.7h7.2c0.7,0,1.3,0.1,1.8,0.3c0.6,0.2,1,0.5,1.4,0.9
	c0.4,0.3,0.7,0.8,0.9,1.3c0.2,0.6,0.4,1.2,0.4,1.8c0,1.4-0.4,2.4-1.1,3.3c-0.6,0.8-1.6,1.3-2.8,1.4l2.9,3.7c0.2,0.2,0.5,0.4,0.6,0.5
	c0.2,0.1,0.5,0.2,0.9,0.2V22c-0.2,0-0.3,0.1-0.5,0.1c-0.3,0.1-0.4,0.1-0.6,0.1c-0.5,0-0.9-0.1-1.2-0.4c-0.4-0.3-0.7-0.6-0.9-1
	L50,16.3z M47.2,13.4h4.1c1,0,1.6-0.2,2-0.5c0.4-0.4,0.6-1,0.6-1.9c0-0.7-0.2-1.2-0.6-1.5c-0.3-0.4-0.9-0.6-1.7-0.6h-4.4V13.4z
	 M67,14.3c0-0.5,0-1-0.1-1.7c-0.1-0.6-0.2-1.1-0.4-1.7c-0.2-0.5-0.4-1-0.8-1.3C65.3,9.2,64.8,9,64.1,9c-0.7,0-1.2,0.2-1.6,0.6
	c-0.4,0.3-0.7,0.7-0.9,1.3c-0.2,0.5-0.3,1.1-0.3,1.7c-0.1,0.6-0.1,1.2-0.1,1.7c0,0.6,0,1.2,0,1.8c0.1,0.6,0.2,1.2,0.4,1.8
	c0.2,0.5,0.5,1,0.9,1.4c0.4,0.4,0.9,0.5,1.6,0.5c0.6,0,1.2-0.1,1.6-0.5c0.3-0.4,0.6-0.9,0.8-1.4c0.2-0.6,0.3-1.2,0.4-1.8
	S67,14.9,67,14.3L67,14.3z M64.1,6.7c0.7,0,1.4,0.1,1.9,0.3c0.6,0.2,1.1,0.5,1.5,0.9s0.7,0.8,0.9,1.4c0.3,0.5,0.5,1,0.6,1.6
	c0.2,0.5,0.2,1.1,0.3,1.7c0,0.6,0.1,1.2,0.1,1.7c0,0.9-0.1,1.8-0.2,2.7c-0.2,0.9-0.4,1.8-0.8,2.5c-0.4,0.8-0.9,1.4-1.6,2
	c-0.7,0.5-1.6,0.7-2.8,0.7c-1.1,0-2-0.2-2.7-0.8c-0.7-0.5-1.2-1.1-1.6-1.9c-0.4-0.8-0.6-1.6-0.8-2.5c-0.1-1-0.2-1.8-0.2-2.7
	c0-0.8,0.1-1.7,0.2-2.6c0.2-0.9,0.4-1.7,0.8-2.5c0.4-0.7,0.9-1.3,1.6-1.8S62.9,6.7,64.1,6.7L64.1,6.7z M81.9,10
	c-0.5-0.5-1-0.8-1.6-1c-0.5-0.2-1.1-0.3-1.8-0.3c-0.9,0-1.7,0.1-2.3,0.4c-0.6,0.2-1.1,0.6-1.5,1c-0.4,0.5-0.7,1.1-0.9,1.7
	c-0.1,0.7-0.2,1.4-0.2,2.3v0.5c0,1.7,0.4,3,1.3,3.9c0.8,0.9,2.2,1.4,4,1.4c0.4,0,0.9,0,1.3-0.1c0.4-0.2,0.8-0.3,1.1-0.4v-3.1h-2.8
	V14h5.2v6.9c-0.7,0.4-1.5,0.7-2.3,0.9c-0.9,0.3-1.8,0.4-2.6,0.4c-1.2,0-2.3-0.2-3.2-0.5c-1-0.3-1.8-0.8-2.4-1.5
	c-0.7-0.6-1.2-1.4-1.6-2.4c-0.3-0.9-0.5-2-0.5-3.2v-0.5c0-1.2,0.1-2.2,0.5-3.2c0.3-0.9,0.8-1.7,1.4-2.4s1.4-1.2,2.3-1.6
	c0.9-0.3,2-0.5,3.2-0.5c1,0,2,0.2,2.9,0.5c0.9,0.3,1.7,0.8,2.3,1.6L81.9,10z M91.4,16.3c-0.1-0.3-0.3-0.4-0.6-0.5
	c-0.2-0.1-0.5-0.1-0.7-0.1h-1.5V22h-2.5V6.7h7.3c0.6,0,1.2,0.1,1.7,0.3c0.6,0.2,1,0.5,1.4,0.9c0.4,0.3,0.7,0.8,0.9,1.3
	c0.3,0.6,0.4,1.2,0.4,1.8c0,1.4-0.4,2.4-1,3.3c-0.7,0.8-1.6,1.3-2.9,1.4l2.9,3.7c0.3,0.2,0.5,0.4,0.7,0.5s0.4,0.2,0.8,0.2V22
	c-0.1,0-0.3,0.1-0.5,0.1c-0.2,0.1-0.4,0.1-0.6,0.1c-0.4,0-0.8-0.1-1.2-0.4c-0.3-0.3-0.6-0.6-0.9-1L91.4,16.3z M88.6,13.4h4.1
	c1,0,1.6-0.2,2-0.5c0.4-0.4,0.6-1,0.6-1.9c0-0.7-0.2-1.2-0.5-1.5c-0.4-0.4-1-0.6-1.8-0.6h-4.4V13.4z M104.6,15.4h4.6l-2-5.1
	l-0.3-1.7l-0.4,1.7L104.6,15.4z M103.9,17.6l-1.6,4.4h-2.6l5.7-15.3h2.9l6,15.3h-2.6l-1.6-4.4H103.9z M116,22V6.7h3.4l4.2,10.7
	l4.3-10.7h3.3V22h-2.5V10.4l-3.9,9.7h-2.4l-3.9-9.9V22H116z M133.9,22V6.7h3.3l4.3,10.7l4.3-10.7h3.3V22h-2.5V10.4l-3.9,9.7h-2.4
	l-3.9-9.9V22H133.9z"/>
<path id="pr0gramm-logo-background" class="st6" d="M4,3h18c1.1,0,2,0.9,2,2v18c0,1.1-0.9,2-2,2H4c-1.1,0-2-0.9-2-2V5
	C2,3.9,2.9,3,4,3z"/>
<g id="pr0gramm-logo-sign" transform="translate(5.0, 7.0)" class="st7">
	<path class="st8" d="M9,10h5c0.6,0,1,0.4,1,1l0,0c0,0.6-0.4,1-1,1H9c-0.6,0-1-0.4-1-1l0,0C8,10.4,8.4,10,9,10z"/>
	<path class="st8" d="M2,9.7C2.4,9.3,2.9,9,3.3,8.6c0.5-0.4,0.9-0.8,1.4-1.1c0.4-0.4,0.8-0.7,1.1-1C5.5,6.3,5.2,6,4.7,5.6
		C4.3,5.2,3.9,4.8,3.4,4.4S2.5,3.7,2,3.3C1.6,2.9,1.2,2.6,1,2.4C0.7,2.1,0.6,1.8,0.6,1.5s0.1-0.6,0.3-0.8s0.4-0.3,0.7-0.3
		c0.2,0,0.3,0.1,0.6,0.2c0,0,0.2,0.2,0.5,0.4C3,1.3,3.4,1.6,3.8,2c0.4,0.3,0.8,0.7,1.3,1.1S6,3.9,6.4,4.2c0.4,0.3,0.8,0.6,1.1,0.9
		C7.8,5.4,8,5.5,8.1,5.6c0.3,0.3,0.4,0.6,0.4,1c0,0.3-0.1,0.6-0.4,0.9C7.7,7.8,7.2,8.2,6.7,8.6C6.2,9,5.7,9.5,5.1,9.9
		c-0.5,0.4-1,0.9-1.6,1.3C3,11.6,2.6,12,2.1,12.3c-0.2,0.1-0.4,0.2-0.6,0.2c-0.3,0-0.5-0.1-0.7-0.3s-0.3-0.4-0.3-0.7
		s0.1-0.6,0.3-0.9C1.1,10.3,1.5,10,2,9.7z"/>
</g>
<rect x="31" y="4.1" class="st9" width="121.9" height="5.3"/>
<rect x="29.5" y="19.4" class="st9" width="121.9" height="5.3"/>
<rect x="31.3" y="8.5" class="st10" width="117.8" height="12.2"/>
<text transform="matrix(1 0 0 1 50.0713 20.5483)" class="st11 st12 st13">ZENSIERT</text>
<path class="st14" d="M13.8,25h-1.5C6.6,25,2,20.4,2,14.8v-1.5C2,7.6,6.6,3,12.2,3h1.5C19.4,3,24,7.6,24,13.2v1.5
	C24,20.4,19.4,25,13.8,25z"/>
<g>
	<g>
		<path class="st5" d="M18.9,10.7c-1.8-0.9-4.4-1.5-7.2-1.5c-2.9,0-5.4,0.6-7.2,1.5c0,0,0,0,0,0c-0.1,0-0.1,0.1-0.1,0.2l4.1,7.1
			l0.6,1h5.3l0.6-1l4.1-7.1C19,10.8,19,10.7,18.9,10.7C18.9,10.7,18.9,10.7,18.9,10.7z"/>
		<polygon class="st6" points="9.5,18.2 5.3,10.8 4.9,11 9.2,18.6 9.3,18.6 9.3,18.6 14.2,18.6 14.2,18.2 		"/>
	</g>
	<rect x="15.8" y="17.6" class="st5" width="5.8" height="1.4"/>
</g>
</svg>
