<?xml version="1.0" encoding="utf-8"?>
<!-- Generator: Adobe Illustrator 22.0.1, SVG Export Plug-In . SVG Version: 6.00 Build 0)  -->
<svg version="1.1" id="pr0gramm-logo" xmlns="http://www.w3.org/2000/svg" xmlns:xlink="http://www.w3.org/1999/xlink" x="0px"
	 y="0px" viewBox="0 0 156 30" style="enable-background:new 0 0 156 30;" xml:space="preserve">
<style type="text/css">
	.st0{fill:#FFFFFF;}
	.st1{fill:#444444;}
	.st2{fill:#D23C22;}
	.st3{display:none;fill:#E31F1E;}
</style>
<path id="pr0gramm-logo-type" class="st0" d="M31.3,22V6.7h7.5c0.8,0,1.4,0.1,2,0.3c0.5,0.2,1,0.6,1.3,1c0.4,0.4,0.7,0.9,0.9,1.5
	s0.3,1.2,0.3,1.9c0,0.7-0.1,1.4-0.3,2c-0.2,0.6-0.5,1.1-0.8,1.6c-0.4,0.4-0.8,0.8-1.4,1c-0.6,0.3-1.2,0.4-2,0.4h-5V22H31.3z
	 M33.8,8.9v5.2H38c0.9,0,1.7-0.2,2.1-0.7c0.5-0.4,0.7-1.1,0.7-2c0-0.9-0.3-1.5-0.7-1.9c-0.5-0.4-1.2-0.6-2.1-0.6H33.8z M50,16.3
	c-0.1-0.3-0.4-0.4-0.6-0.5c-0.3-0.1-0.5-0.1-0.7-0.1h-1.5V22h-2.5V6.7h7.2c0.7,0,1.3,0.1,1.8,0.3c0.6,0.2,1,0.5,1.4,0.9
	c0.4,0.3,0.7,0.8,0.9,1.3c0.2,0.6,0.4,1.2,0.4,1.8c0,1.4-0.4,2.4-1.1,3.3c-0.6,0.8-1.6,1.3-2.8,1.4l2.9,3.7c0.2,0.2,0.5,0.4,0.6,0.5
	c0.2,0.1,0.5,0.2,0.9,0.2V22c-0.2,0-0.3,0.1-0.5,0.1c-0.3,0.1-0.4,0.1-0.6,0.1c-0.5,0-0.9-0.1-1.2-0.4c-0.4-0.3-0.7-0.6-0.9-1
	L50,16.3z M47.2,13.4h4.1c1,0,1.6-0.2,2-0.5c0.4-0.4,0.6-1,0.6-1.9c0-0.7-0.2-1.2-0.6-1.5c-0.3-0.4-0.9-0.6-1.7-0.6h-4.4V13.4z
	 M67,14.3c0-0.5,0-1-0.1-1.7c-0.1-0.6-0.2-1.1-0.4-1.7c-0.2-0.5-0.4-1-0.8-1.3C65.3,9.2,64.8,9,64.1,9c-0.7,0-1.2,0.2-1.6,0.6
	c-0.4,0.3-0.7,0.7-0.9,1.3c-0.2,0.5-0.3,1.1-0.3,1.7c-0.1,0.6-0.1,1.2-0.1,1.7c0,0.6,0,1.2,0,1.8c0.1,0.6,0.2,1.2,0.4,1.8
	c0.2,0.5,0.5,1,0.9,1.4c0.4,0.4,0.9,0.5,1.6,0.5c0.6,0,1.2-0.1,1.6-0.5c0.3-0.4,0.6-0.9,0.8-1.4c0.2-0.6,0.3-1.2,0.4-1.8
	S67,14.9,67,14.3L67,14.3z M64.1,6.7c0.7,0,1.4,0.1,1.9,0.3c0.6,0.2,1.1,0.5,1.5,0.9s0.7,0.8,0.9,1.4c0.3,0.5,0.5,1,0.6,1.6
	c0.2,0.5,0.2,1.1,0.3,1.7c0,0.6,0.1,1.2,0.1,1.7c0,0.9-0.1,1.8-0.2,2.7c-0.2,0.9-0.4,1.8-0.8,2.5c-0.4,0.8-0.9,1.4-1.6,2
	c-0.7,0.5-1.6,0.7-2.8,0.7c-1.1,0-2-0.2-2.7-0.8c-0.7-0.5-1.2-1.1-1.6-1.9c-0.4-0.8-0.6-1.6-0.8-2.5c-0.1-1-0.2-1.8-0.2-2.7
	c0-0.8,0.1-1.7,0.2-2.6c0.2-0.9,0.4-1.7,0.8-2.5c0.4-0.7,0.9-1.3,1.6-1.8S62.9,6.7,64.1,6.7L64.1,6.7z M81.9,10
	c-0.5-0.5-1-0.8-1.6-1c-0.5-0.2-1.1-0.3-1.8-0.3c-0.9,0-1.7,0.1-2.3,0.4c-0.6,0.2-1.1,0.6-1.5,1c-0.4,0.5-0.7,1.1-0.9,1.7
	c-0.1,0.7-0.2,1.4-0.2,2.3v0.5c0,1.7,0.4,3,1.3,3.9c0.8,0.9,2.2,1.4,4,1.4c0.4,0,0.9,0,1.3-0.1c0.4-0.2,0.8-0.3,1.1-0.4v-3.1h-2.8
	V14h5.2v6.9c-0.7,0.4-1.5,0.7-2.3,0.9c-0.9,0.3-1.8,0.4-2.6,0.4c-1.2,0-2.3-0.2-3.2-0.5c-1-0.3-1.8-0.8-2.4-1.5
	c-0.7-0.6-1.2-1.4-1.6-2.4c-0.3-0.9-0.5-2-0.5-3.2v-0.5c0-1.2,0.1-2.2,0.5-3.2c0.3-0.9,0.8-1.7,1.4-2.4s1.4-1.2,2.3-1.6
	c0.9-0.3,2-0.5,3.2-0.5c1,0,2,0.2,2.9,0.5c0.9,0.3,1.7,0.8,2.3,1.6L81.9,10z M91.4,16.3c-0.1-0.3-0.3-0.4-0.6-0.5
	c-0.2-0.1-0.5-0.1-0.7-0.1h-1.5V22h-2.5V6.7h7.3c0.6,0,1.2,0.1,1.7,0.3c0.6,0.2,1,0.5,1.4,0.9c0.4,0.3,0.7,0.8,0.9,1.3
	c0.3,0.6,0.4,1.2,0.4,1.8c0,1.4-0.4,2.4-1,3.3c-0.7,0.8-1.6,1.3-2.9,1.4l2.9,3.7c0.3,0.2,0.5,0.4,0.7,0.5s0.4,0.2,0.8,0.2V22
	c-0.1,0-0.3,0.1-0.5,0.1c-0.2,0.1-0.4,0.1-0.6,0.1c-0.4,0-0.8-0.1-1.2-0.4c-0.3-0.3-0.6-0.6-0.9-1L91.4,16.3z M88.6,13.4h4.1
	c1,0,1.6-0.2,2-0.5c0.4-0.4,0.6-1,0.6-1.9c0-0.7-0.2-1.2-0.5-1.5c-0.4-0.4-1-0.6-1.8-0.6h-4.4V13.4z M104.6,15.4h4.6l-2-5.1
	l-0.3-1.7l-0.4,1.7L104.6,15.4z M103.9,17.6l-1.6,4.4h-2.6l5.7-15.3h2.9l6,15.3h-2.6l-1.6-4.4H103.9z M116,22V6.7h3.4l4.2,10.7
	l4.3-10.7h3.3V22h-2.5V10.4l-3.9,9.7h-2.4l-3.9-9.9V22H116z M133.9,22V6.7h3.3l4.3,10.7l4.3-10.7h3.3V22h-2.5V10.4l-3.9,9.7h-2.4
	l-3.9-9.9V22H133.9z"/>
<rect x="29.5" y="3" class="st1" width="121.9" height="21.6"/>
<path id="pr0gramm-logo-background" class="st2" d="M4,3h18c1.1,0,2,0.9,2,2v18c0,1.1-0.9,2-2,2H4c-1.1,0-2-0.9-2-2V5
	C2,3.9,2.9,3,4,3z"/>
<g>
	<path class="st0" d="M40.4,6.7h11.8v0.9c0,0.6-0.2,1.2-0.6,1.6l-8.3,9.6l-1,0.9h10.1V22H39.3v-1c0-0.6,0.2-1.1,0.6-1.6l7.7-9.1
		L49.3,9h-9.6L40.4,6.7z"/>
	<path class="st0" d="M66.1,22H54.9V6.7h11.2L65.4,9h-8.1v3.7h7.3v2.3h-7.3v4.6h8.7V22z"/>
	<path class="st0" d="M68.5,22V6.7h3l7.1,11.5V6.7h2.5V22h-2.9l-7.2-11.7V22H68.5z"/>
	<path class="st0" d="M83.7,10.6c0-0.8,0.2-1.4,0.5-1.9c0.4-0.5,0.8-0.9,1.4-1.3c0.6-0.3,1.2-0.6,1.9-0.7c0.7-0.1,1.4-0.2,2-0.2
		c0.5,0,0.9,0,1.4,0.1c0.5,0.1,0.9,0.2,1.4,0.4c0.5,0.2,0.9,0.4,1.3,0.7C94,8,94.3,8.3,94.6,8.6l-1.7,1.5c-0.5-0.5-1.1-0.9-1.7-1.1
		c-0.6-0.2-1.3-0.3-2-0.3c-0.3,0-0.7,0-1,0.1s-0.7,0.2-1,0.3c-0.3,0.1-0.5,0.3-0.7,0.5c-0.2,0.2-0.3,0.5-0.3,0.8
		c0,0.4,0,0.7,0.1,0.9c0.1,0.2,0.2,0.4,0.4,0.6c0.2,0.2,0.4,0.3,0.6,0.4c0.3,0.1,0.5,0.2,0.8,0.3c0.7,0.2,1.4,0.4,2.1,0.6
		c0.7,0.2,1.4,0.4,2.1,0.7c0.8,0.4,1.4,0.9,1.8,1.5c0.5,0.6,0.7,1.4,0.7,2.4c0,0.8-0.2,1.5-0.5,2.1c-0.4,0.6-0.8,1-1.4,1.4
		c-0.6,0.4-1.2,0.6-1.9,0.7c-0.7,0.1-1.4,0.2-2.1,0.2c-0.6,0-1.2-0.1-1.8-0.2c-0.6-0.1-1.2-0.3-1.7-0.6c-0.5-0.3-1-0.6-1.5-1
		c-0.4-0.4-0.8-0.9-1.1-1.5l2-1.1c0.4,0.7,1,1.2,1.7,1.5c0.7,0.4,1.5,0.5,2.4,0.5c0.4,0,0.8,0,1.2-0.1c0.4-0.1,0.8-0.2,1.1-0.4
		s0.6-0.4,0.8-0.6c0.2-0.3,0.3-0.6,0.3-1c0-0.3-0.1-0.6-0.2-0.8c-0.1-0.2-0.3-0.4-0.4-0.6s-0.4-0.3-0.7-0.4
		c-0.2-0.1-0.5-0.2-0.8-0.3c-0.7-0.2-1.4-0.5-2.2-0.6c-0.7-0.2-1.4-0.4-2.1-0.7c-0.4-0.2-0.7-0.4-1-0.6s-0.6-0.5-0.8-0.8
		s-0.4-0.6-0.5-1C83.8,11.6,83.7,11.1,83.7,10.6z"/>
	<path class="st0" d="M99.7,6.7V22h-2.5V6.7H99.7z"/>
	<path class="st0" d="M113.6,22h-11.2V6.7h11.2L112.9,9h-8.1v3.7h7.3v2.3h-7.3v4.6h8.7V22z"/>
	<path class="st0" d="M121.3,16.3c-0.2-0.2-0.4-0.4-0.6-0.4c-0.2-0.1-0.5-0.1-0.7-0.1h-1.5V22H116V6.7h7.2c0.6,0,1.2,0.1,1.8,0.3
		c0.5,0.2,1,0.5,1.4,0.9s0.7,0.9,0.9,1.4c0.2,0.5,0.3,1.1,0.3,1.8c0,1.3-0.3,2.4-1,3.2c-0.7,0.8-1.6,1.3-2.8,1.4l2.9,3.7
		c0.2,0.3,0.4,0.5,0.6,0.6c0.2,0.1,0.5,0.1,0.8,0.1V22c-0.1,0.1-0.3,0.1-0.5,0.2c-0.2,0.1-0.4,0.1-0.6,0.1c-0.4,0-0.8-0.2-1.2-0.5
		c-0.4-0.3-0.7-0.6-0.9-0.9L121.3,16.3z M118.5,13.5h4.1c0.9,0,1.6-0.2,2-0.5c0.4-0.3,0.6-1,0.6-1.8c0-0.7-0.2-1.2-0.5-1.6
		S123.7,9,122.8,9h-4.4V13.5z"/>
	<path class="st0" d="M136.8,9v13h-2.5V9h-4.8V6.7h12.4L141.1,9H136.8z"/>
</g>
<path class="st3" d="M13.8,25h-1.5C6.6,25,2,20.4,2,14.8v-1.5C2,7.6,6.6,3,12.2,3h1.5C19.4,3,24,7.6,24,13.2v1.5
	C24,20.4,19.4,25,13.8,25z"/>
<g>
	<g>
		<path class="st0" d="M18.9,10.7c-1.8-0.9-4.4-1.5-7.2-1.5c-2.9,0-5.4,0.6-7.2,1.5c0,0,0,0,0,0c-0.1,0-0.1,0.1-0.1,0.2l4.1,7.1
			l0.6,1h5.3l0.6-1l4.1-7.1C19,10.8,19,10.7,18.9,10.7C18.9,10.7,18.9,10.7,18.9,10.7z"/>
		<polygon class="st2" points="9.5,18.2 5.3,10.8 4.9,11 9.2,18.6 9.3,18.6 9.3,18.6 14.2,18.6 14.2,18.2 		"/>
	</g>
	<rect x="15.8" y="17.6" class="st0" width="5.8" height="1.4"/>
</g>
</svg>
