<?xml version="1.0" encoding="UTF-8" standalone="no"?><!DOCTYPE svg PUBLIC "-//W3C//DTD SVG 1.1//EN" "http://www.w3.org/Graphics/SVG/1.1/DTD/svg11.dtd"><svg width="100%" height="100%" viewBox="0 0 4494 2574" version="1.1" xmlns="http://www.w3.org/2000/svg" xmlns:xlink="http://www.w3.org/1999/xlink" xml:space="preserve" xmlns:serif="http://www.serif.com/" style="fill-rule:evenodd;clip-rule:evenodd;stroke-linecap:round;stroke-linejoin:round;stroke-miterlimit:1.5;"><rect id="ArtBoard1" x="0" y="0" width="4493.06" height="2573.33" style="fill:#142e4d;"/><clipPath id="_clip1"><rect x="0" y="0" width="4493.06" height="2573.33"/></clipPath><g clip-path="url(#_clip1)"><path d="M575.61,1600.78c264.192,-166.289 659.538,-291.285 1002.57,-285.502c402.109,6.778 980.892,287.635 1501.64,360.064c658.895,91.643 2350,-515.152 2350,-515.152l-931.698,2160.44l-3939.05,-157.257c-375.825,-175.432 -682.338,-431.414 -755.496,-958.584c0,0 492.309,-427.943 772.03,-604.008Z" style="fill:#ffbf00;"/><path d="M1446.52,816.501c0,-26.83 -21.782,-48.612 -48.612,-48.612l-1118.09,0c-26.83,0 -48.613,21.782 -48.613,48.612l0,1497.73c0,26.83 21.783,48.613 48.613,48.613l1118.09,0c26.83,0 48.612,-21.783 48.612,-48.613l0,-1497.73Z" style="fill:#1f1f1f;"/><text x="645.895px" y="1616px" style="font-family:'Arial-BoldMT', 'Arial', sans-serif;font-weight:700;font-size:64px;fill:#d9d9d9;">Upload-Filter</text><path d="M4228.5,816.501c0,-26.83 -21.783,-48.612 -48.613,-48.612l-1118.09,0c-26.83,0 -48.612,21.782 -48.612,48.612l0,1497.73c0,26.83 21.782,48.613 48.612,48.613l1118.09,0c26.83,0 48.613,-21.783 48.613,-48.613l0,-1497.73Z" style="fill:#1f1f1f;"/><path d="M2837.51,816.501c0,-26.83 -21.783,-48.612 -48.613,-48.612l-1118.09,0c-26.83,0 -48.613,21.782 -48.613,48.612l0,1497.73c0,26.83 21.783,48.613 48.613,48.613l1118.09,0c26.83,0 48.613,-21.783 48.613,-48.613l0,-1497.73Z" style="fill:#1f1f1f;"/><path d="M853.933,903.697c96.814,-9.631 151.746,27.636 145.995,112.889l-144.46,0.734" style="fill:#909090;"/><clipPath id="_clip2"><path d="M853.933,903.697c96.814,-9.631 151.746,27.636 145.995,112.889l-144.46,0.734"/></clipPath><g clip-path="url(#_clip2)"><path d="M958.786,1018.11c3.796,-31.992 2.139,-65.953 -13.729,-105.046l-94.679,-15.741l5.09,120.787l103.318,0" style="fill:#7c7c7c;"/></g><path d="M853.933,903.697c96.814,-9.631 151.746,27.636 145.995,112.889l-144.46,0.734" style="fill:none;stroke:#181818;stroke-width:17.63px;"/><path d="M871.468,913.061l0,40.019l-19.992,0" style="fill:none;stroke:#181818;stroke-width:17.63px;"/><path d="M904.405,913.061l0.354,72.248l-49.291,0" style="fill:none;stroke:#181818;stroke-width:17.63px;"/><path d="M829.007,1049.11l169.72,0.62c0.887,35.497 1.491,69.986 1.057,99.187c-0.703,47.269 -4.299,92.789 -25.72,117.629c-23.292,27.013 -96.358,19.865 -150.758,22.257" style="fill:#909090;"/><clipPath id="_clip3"><path d="M829.007,1049.11l169.72,0.62c0.887,35.497 1.491,69.986 1.057,99.187c-0.703,47.269 -4.299,92.789 -25.72,117.629c-23.292,27.013 -96.358,19.865 -150.758,22.257"/></clipPath><g clip-path="url(#_clip3)"><path d="M888.724,1288.81c0,0 -22.032,-89.965 -17.706,-119.846c4.262,-29.438 51.928,-40.839 66.556,-59.439c11.604,-14.755 21.212,-52.164 21.212,-52.164l-135.48,-8.244l0,231.803l65.418,7.89Z" style="fill:#7c7c7c;"/></g><path d="M829.007,1049.11l169.72,0.62c0.887,35.497 1.491,69.986 1.057,99.187c-0.703,47.269 -4.299,92.789 -25.72,117.629c-23.292,27.013 -96.358,19.865 -150.758,22.257" style="fill:none;stroke:#181818;stroke-width:17.63px;"/><path d="M640.373,1067.76c8.932,-104.871 68.935,-160.031 182.933,-162.634l0,99.756c0,0 -32.85,68.63 -31.281,60.786" style="fill:#f8db59;"/><clipPath id="_clip4"><path d="M640.373,1067.76c8.932,-104.871 68.935,-160.031 182.933,-162.634l0,99.756c0,0 -32.85,68.63 -31.281,60.786"/></clipPath><g clip-path="url(#_clip4)"><path d="M750.466,1038.7c-9.479,1.84 -128.201,46.92 -128.201,46.92l24.823,-148.12l73.848,-54.279c0,0 74.463,9.804 85.716,14.102c6.384,2.438 -4.989,46.108 -18.525,83.958c-10.322,28.864 -19.379,53.87 -37.661,57.419Z" style="fill:#eace54;"/></g><path d="M640.373,1067.76c8.932,-104.871 68.935,-160.031 182.933,-162.634l0,99.756c0,0 -32.85,68.63 -31.281,60.786" style="fill:none;stroke:#181818;stroke-width:17.63px;"/><path d="M2347.51,1282.81l62.365,60.914" style="fill:none;stroke:#c33e3e;stroke-width:17.6px;"/><path d="M2296.78,1175.21l-14.912,-80.564" style="fill:none;stroke:#c33e3e;stroke-width:17.6px;"/><path d="M2347.51,1192.68l62.365,-53.137" style="fill:none;stroke:#c33e3e;stroke-width:17.6px;"/><path d="M2010.96,1003.25l20.35,91.794" style="fill:#c3494c;stroke:#c33e3e;stroke-width:17.6px;"/><path d="M2010.96,1003.25l20.35,91.794" style="fill:#c3494c;stroke:#c33e3e;stroke-width:17.6px;"/><path d="M2031.31,1212.35l-34.207,124.096" style="fill:#c3494c;stroke:#c33e3e;stroke-width:17.6px;"/><path d="M2069.67,1199.88l56.663,136.571" style="fill:#c3494c;stroke:#c33e3e;stroke-width:17.6px;"/><circle cx="1999.26" cy="945.48" r="61.008" style="fill:#5dc7b7;stroke:#181818;stroke-width:17.6px;"/><circle cx="2456.31" cy="1388.3" r="65.15" style="fill:#5dc7b7;stroke:#181818;stroke-width:17.6px;"/><circle cx="2045.22" cy="1153.7" r="58.652" style="fill:#5d92c7;stroke:#181818;stroke-width:17.6px;"/><circle cx="2305.74" cy="1234.62" r="58.652" style="fill:#5d92c7;stroke:#181818;stroke-width:17.6px;"/><circle cx="1986.57" cy="1379.92" r="43.612" style="fill:#416cdd;stroke:#181818;stroke-width:17.6px;"/><circle cx="2270.77" cy="1051.04" r="43.612" style="fill:#416cdd;stroke:#181818;stroke-width:17.6px;"/><circle cx="2147.69" cy="1380.13" r="43.812" style="fill:#416cdd;stroke:#181818;stroke-width:17.6px;"/><circle cx="2434.97" cy="1094.65" r="43.812" style="fill:#416cdd;stroke:#181818;stroke-width:17.6px;"/><path d="M823.306,1004.88c-40.571,30.892 -90.046,43.939 -142.309,42.775c1.297,78.091 -11.642,137.908 5.979,178.287c9.184,21.043 24.374,41.909 43.741,51.675c22.078,11.134 49.716,11.301 92.589,11.173l0,-66.353l0,-217.557Z" style="fill:#fff3bd;"/><clipPath id="_clip5"><path d="M823.306,1004.88c-40.571,30.892 -90.046,43.939 -142.309,42.775c1.297,78.091 -11.642,137.908 5.979,178.287c9.184,21.043 24.374,41.909 43.741,51.675c22.078,11.134 49.716,11.301 92.589,11.173l0,-66.353l0,-217.557Z"/></clipPath><g clip-path="url(#_clip5)"><path d="M756.788,1043.46c-66.791,-40.383 -110.151,27.078 -79.162,140.953c18.379,67.539 58.553,104.392 96.826,104.392c-16.369,-28.489 -47.11,-59.289 -52.599,-111.458c-1.944,-18.475 -1.555,-34.814 -1.261,-49.627c0.654,-32.885 21.619,-65.18 36.196,-84.26Z" style="fill:#eee0a3;"/></g><path d="M823.306,1004.88c-40.571,30.892 -90.046,43.939 -142.309,42.775c1.297,78.091 -11.642,137.908 5.979,178.287c9.184,21.043 24.374,41.909 43.741,51.675c22.078,11.134 49.716,11.301 92.589,11.173l0,-66.353l0,-217.557Z" style="fill:none;stroke:#181818;stroke-width:17.63px;"/><circle cx="752.116" cy="1128.98" r="16.338" style="fill:#6dc764;stroke:#181818;stroke-width:17.63px;"/><path d="M776.053,1233.87c19.819,-15.48 20.684,-9.925 47.253,-9.718" style="fill:none;stroke:#181818;stroke-width:17.63px;"/><path d="M647.088,1097.54c-6.849,0.452 -13.835,2.117 -18.9,4.835c-36.114,19.379 -41.41,54.144 -10.574,79.845c6.78,5.651 18.85,11.979 29.474,9.449l0,-94.129Z" style="fill:#fff3bd;stroke:#181818;stroke-width:17.63px;"/><path d="M1030.65,1106.62c6.849,0.452 13.834,2.117 18.899,4.835c36.114,19.379 41.41,54.144 10.574,79.845c-6.78,5.651 -18.849,11.979 -29.473,9.449l0,-94.129Z" style="fill:#909090;stroke:#181818;stroke-width:17.63px;"/><path d="M852.559,1192.24c28.908,-0.68 49.209,-2.822 63.999,0c27.012,5.152 28.081,37.439 2.65,45.685c-13.763,4.462 -36.122,4.652 -66.649,3.567" style="fill:none;stroke:#181818;stroke-width:17.63px;"/><path d="M869.992,1192.24l0.203,46.125" style="fill:none;stroke:#181818;stroke-width:17.63px;"/><path d="M904.923,1193.11l0.204,46.125" style="fill:none;stroke:#181818;stroke-width:17.63px;"/><circle cx="911.468" cy="1121.32" r="19.272" style="fill:#b34034;stroke:#181818;stroke-width:17.63px;"/><path d="M1030.65,1066.22l0,-66.7" style="fill:none;stroke:#181818;stroke-width:17.63px;"/><circle cx="1031.47" cy="921.831" r="15.489" style="fill:#909090;stroke:#181818;stroke-width:17.63px;"/><path d="M1031.47,937.32l0,37.106" style="fill:none;stroke:#181818;stroke-width:17.63px;"/><path d="M768.155,1316.61l-0.819,67.853l55.97,0l0,-67.147" style="fill:#fff3bd;"/><clipPath id="_clip6"><path d="M768.155,1316.61l-0.819,67.853l55.97,0l0,-67.147"/></clipPath><g clip-path="url(#_clip6)"><path d="M774.452,1304.09l65.016,82.8l-78.429,14.72l-56.426,-34.96l32.507,-52.746l37.332,-9.814Z" style="fill:#eee0a3;"/></g><path d="M768.155,1316.61l-0.819,67.853l55.97,0l0,-67.147" style="fill:none;stroke:#181818;stroke-width:17.63px;"/><path d="M852.559,1352.46l105.202,1.332l0,30.669l-105.202,0" style="fill:#909090;"/><clipPath id="_clip7"><path d="M852.559,1352.46l105.202,1.332l0,30.669l-105.202,0"/></clipPath><g clip-path="url(#_clip7)"><path d="M905.439,1351.54l6.178,41.776l-57.684,-8.992l-14.465,-38.437l65.971,5.653" style="fill:#7c7c7c;"/></g><path d="M852.559,1352.46l105.202,1.332l0,30.669l-105.202,0" style="fill:none;stroke:#181818;stroke-width:17.63px;"/><path d="M905.16,1349.46l0,-28.317" style="fill:none;stroke:#181818;stroke-width:17.63px;"/><g transform="matrix(1,0,0,1,96.4904,652.907)"><text x="389.384px" y="1068.13px" style="font-family:'Raleway-Medium', 'Raleway', sans-serif;font-weight:500;font-size:48px;fill:#bfbfbf;">Ein Upload-Fil<tspan x="706.664px 723.32px 751.688px 768.056px 780.104px " y="1068.13px 1068.13px 1068.13px 1068.13px 1068.13px ">ter a</tspan>uf<tspan x="852.056px 864.104px " y="1068.13px 1068.13px "> S</tspan>eiten <tspan x="1016.6px 1056.15px " y="1068.13px 1068.13px ">wi</tspan>e</text><text x="290.648px" y="1132.13px" style="font-family:'Raleway-Medium', 'Raleway', sans-serif;font-weight:500;font-size:48px;fill:#bfbfbf;">Instagr<tspan x="444.968px 471.704px " y="1132.13px 1132.13px ">am</tspan>, F<tspan x="563.432px 590.168px " y="1132.13px 1132.13px ">ac</tspan>ebook<tspan x="758.264px 768.536px 780.584px 808.712px 825.368px " y="1132.13px 1132.13px 1132.13px 1132.13px 1132.13px ">, etc</tspan>. soll<tspan x="951.56px 963.608px " y="1132.13px 1132.13px "> p</tspan>rüfen, ob</text><text x="356.648px" y="1196.13px" style="font-family:'Raleway-Medium', 'Raleway', sans-serif;font-weight:500;font-size:48px;fill:#bfbfbf;">der<tspan x="431.672px 443.72px " y="1196.13px 1196.13px "> h</tspan>ochgeladene P<tspan x="810.008px 838.616px " y="1196.13px 1196.13px ">os</tspan>t gegen das</text><text x="337.328px" y="1260.13px" style="font-family:'Raleway-Medium', 'Raleway', sans-serif;font-weight:500;font-size:48px;fill:#bfbfbf;">Urheberrech<tspan x="623.216px 639.872px 650.624px 676.256px 704.624px 721.808px 745.376px 762.032px 790.736px 816.896px 833.552px " y="1260.13px 1260.13px 1260.13px 1260.13px 1260.13px 1260.13px 1260.13px 1260.13px 1260.13px 1260.13px 1260.13px ">t verstößt.</tspan> D<tspan x="889.328px 916.064px " y="1260.13px 1260.13px ">as</tspan> alles soll</text><text x="313.424px" y="1324.13px" style="font-family:'Raleway-Medium', 'Raleway', sans-serif;font-weight:500;font-size:48px;fill:#bfbfbf;">aller<tspan x="411.824px 442.112px " y="1324.13px 1324.13px ">di</tspan>ngs aut<tspan x="618.368px 647.072px 691.232px 717.584px 734.24px " y="1324.13px 1324.13px 1324.13px 1324.13px 1324.13px ">omati</tspan>sch passieren. Dies</text><text x="347.936px" y="1388.13px" style="font-family:'Raleway-Medium', 'Raleway', sans-serif;font-weight:500;font-size:48px;fill:#bfbfbf;">ha<tspan x="402.416px 419.072px " y="1388.13px 1388.13px ">t </tspan>zur<tspan x="499.808px 511.856px 538.352px 567.056px " y="1388.13px 1388.13px 1388.13px 1388.13px "> Fol</tspan>ge, dass häuﬁg ebenf<tspan x="1059.54px 1086.27px " y="1388.13px 1388.13px ">al</tspan>ls</text><text x="295.592px" y="1452.13px" style="font-family:'Raleway-Medium', 'Raleway', sans-serif;font-weight:500;font-size:48px;fill:#bfbfbf;">Inhal<tspan x="404.12px 420.776px " y="1452.13px 1452.13px ">te</tspan> en<tspan x="517.544px 534.104px 551.192px " y="1452.13px 1452.13px 1452.13px ">tfe</tspan>rn<tspan x="624.92px 641.576px 652.28px 691.832px 720.2px 736.616px 766.904px " y="1452.13px 1452.13px 1452.13px 1452.13px 1452.13px 1452.13px 1452.13px ">t werde</tspan>n, die zw<tspan x="989.528px 1016.26px 1032.63px 1044.68px " y="1452.13px 1452.13px 1452.13px 1452.13px ">ar g</tspan>egen</text><text x="325.592px" y="1516.13px" style="font-family:'Raleway-Medium', 'Raleway', sans-serif;font-weight:500;font-size:48px;fill:#bfbfbf;">das Urheberrech<tspan x="704.216px 720.872px 731.624px 757.256px 785.624px 802.808px 826.376px 842.552px 871.256px " y="1516.13px 1516.13px 1516.13px 1516.13px 1516.13px 1516.13px 1516.13px 1516.13px 1516.13px ">t verstoß</tspan>en – jedoch</text><text x="282.056px" y="1580.13px" style="font-family:'Raleway-Medium', 'Raleway', sans-serif;font-weight:500;font-size:48px;fill:#bfbfbf;">un<tspan x="338.984px 355.64px 384.008px 400.376px 412.424px " y="1580.13px 1580.13px 1580.13px 1580.13px 1580.13px ">ter d</tspan>em Schutz des Zita<tspan x="870.536px 887.192px " y="1580.13px 1580.13px ">tr</tspan>ech<tspan x="987.512px 1004.17px " y="1580.13px 1580.13px ">ts</tspan> stehen.</text></g><g transform="matrix(1,0,0,1,2878.47,652.907)"><text x="293.96px" y="1068.13px" style="font-family:'Raleway-Medium', 'Raleway', sans-serif;font-weight:500;font-size:48px;fill:#bfbfbf;">Die Uploadﬁl<tspan x="582.728px 599.384px 627.752px 644.12px 656.168px " y="1068.13px 1068.13px 1068.13px 1068.13px 1068.13px ">ter b</tspan>edeuten auch den <tspan x="1107.03px 1131.8px 1160.5px " y="1068.13px 1068.13px 1068.13px ">Tod</tspan></text><text x="349.16px" y="1132.13px" style="font-family:'Raleway-Medium', 'Raleway', sans-serif;font-weight:500;font-size:48px;fill:#bfbfbf;">der<tspan x="424.184px 436.232px " y="1132.13px 1132.13px "> M</tspan>eme-K<tspan x="629.672px 658.616px 671.672px 688.328px 717.272px 732.392px 741.992px " y="1132.13px 1132.13px 1132.13px 1132.13px 1132.13px 1132.13px 1132.13px ">ultur. </tspan>Urheberrech<tspan x="1039.93px 1056.58px " y="1132.13px 1132.13px ">tl</tspan>ich</text><text x="323.192px" y="1196.13px" style="font-family:'Raleway-Medium', 'Raleway', sans-serif;font-weight:500;font-size:48px;fill:#bfbfbf;">geschütztes Ma<tspan x="677.768px 694.424px " y="1196.13px 1196.13px ">te</tspan>rial<tspan x="789.896px 801.944px 827.24px 853.976px " y="1196.13px 1196.13px 1196.13px 1196.13px "> kan</tspan>n nich<tspan x="1015.83px 1032.49px " y="1196.13px 1196.13px ">t </tspan>mehr</text><text x="279.368px" y="1260.13px" style="font-family:'Raleway-Medium', 'Raleway', sans-serif;font-weight:500;font-size:48px;fill:#bfbfbf;">ohne k<tspan x="429.272px 457.88px " y="1260.13px 1260.13px ">os</tspan>tenpﬂichtige Lizenzen <tspan x="986.168px 1011.8px " y="1260.13px 1260.13px ">ve</tspan>rbreite<tspan x="1188.73px " y="1260.13px ">t</tspan></text><text x="332.144px" y="1324.13px" style="font-family:'Raleway-Medium', 'Raleway', sans-serif;font-weight:500;font-size:48px;fill:#bfbfbf;">wer<tspan x="416.48px 446.768px " y="1324.13px 1324.13px ">de</tspan>n. Re<tspan x="584.912px 601.472px 618.128px 646.256px 662.912px " y="1324.13px 1324.13px 1324.13px 1324.13px 1324.13px ">ttet </tspan>unsere Meme-K<tspan x="1035.3px 1064.24px 1077.3px 1093.95px " y="1324.13px 1324.13px 1324.13px 1324.13px ">ultu</tspan>r!</text></g><g transform="matrix(1,0,0,1,1487.48,652.907)"><text x="406.688px" y="1068.13px" style="font-family:'Raleway-Medium', 'Raleway', sans-serif;font-weight:500;font-size:48px;fill:#bfbfbf;">Presse<tspan x="557.264px 582.896px " y="1068.13px 1068.13px ">ve</tspan>rlage <tspan x="737.696px 777.248px 805.616px 822.032px 852.32px " y="1068.13px 1068.13px 1068.13px 1068.13px 1068.13px ">werde</tspan>n künftig</text><text x="276.032px" y="1132.13px" style="font-family:'Raleway-Medium', 'Raleway', sans-serif;font-weight:500;font-size:48px;fill:#bfbfbf;">verpﬂich<tspan x="471.584px 488.24px 516.368px 533.024px " y="1132.13px 1132.13px 1132.13px 1132.13px ">tet </tspan>alle Link<tspan x="731.888px 755.552px " y="1132.13px 1132.13px ">s,</tspan> die jemand auf<tspan x="1111.95px 1124px " y="1132.13px 1132.13px "> i</tspan>hre</text><text x="334.688px" y="1196.13px" style="font-family:'Raleway-Medium', 'Raleway', sans-serif;font-weight:500;font-size:48px;fill:#bfbfbf;">Inhal<tspan x="443.216px 459.872px " y="1196.13px 1196.13px ">te</tspan> se<tspan x="552.08px 568.736px " y="1196.13px 1196.13px ">tz</tspan>t, in Rechnung zu stellen.</text><text x="300.08px" y="1260.13px" style="font-family:'Raleway-Medium', 'Raleway', sans-serif;font-weight:500;font-size:48px;fill:#bfbfbf;">Nachrich<tspan x="501.296px 517.952px " y="1260.13px 1260.13px ">te</tspan>nportale <tspan x="746.192px 785.744px 814.112px 830.528px 860.816px " y="1260.13px 1260.13px 1260.13px 1260.13px 1260.13px ">werde</tspan>n so zunich<tspan x="1139.65px 1156.3px " y="1260.13px 1260.13px ">te</tspan></text><text x="637.424px" y="1324.13px" style="font-family:'Raleway-Medium', 'Raleway', sans-serif;font-weight:500;font-size:48px;fill:#bfbfbf;">gemach<tspan x="821.072px 837.728px " y="1324.13px 1324.13px ">t.</tspan></text></g><path d="M3363.49,1315.09c16.712,10.161 27.409,29.188 32.334,56.726" style="fill:none;stroke:#67a255;stroke-width:17.6px;"/><path d="M3883.99,1332.11c-16.712,10.161 -27.41,29.188 -32.334,56.726" style="fill:none;stroke:#67a255;stroke-width:17.6px;"/><path d="M3796.61,1069.5c0,-92.668 -79.079,-167.903 -176.483,-167.903c-97.403,0 -176.483,75.235 -176.483,167.903l0,193.229c0,46.583 2.035,104.983 34.283,135.413c31.903,30.105 93.76,32.49 142.2,32.49c56.429,0 123.759,-13.298 156.075,-52.561c23.465,-28.509 20.408,-76.36 20.408,-115.342l0,-193.229Z" style="fill:#8a8a8a;"/><clipPath id="_clip8"><path d="M3796.61,1069.5c0,-92.668 -79.079,-167.903 -176.483,-167.903c-97.403,0 -176.483,75.235 -176.483,167.903l0,193.229c0,46.583 2.035,104.983 34.283,135.413c31.903,30.105 93.76,32.49 142.2,32.49c56.429,0 123.759,-13.298 156.075,-52.561c23.465,-28.509 20.408,-76.36 20.408,-115.342l0,-193.229Z"/></clipPath><g clip-path="url(#_clip8)"><path d="M3644.7,900.352c-113.776,-45.621 -230.056,87.42 -214.401,258.902c12.933,141.67 -14.321,231.613 75.061,231.613c-26.815,-60.119 -8.613,-192.505 -14.425,-299.114c-6.214,-113.985 110.572,-140.775 153.765,-191.401Z" style="fill:#7e7e7e;"/></g><path d="M3796.61,1069.5c0,-92.668 -79.079,-167.903 -176.483,-167.903c-97.403,0 -176.483,75.235 -176.483,167.903l0,193.229c0,46.583 2.035,104.983 34.283,135.413c31.903,30.105 93.76,32.49 142.2,32.49c56.429,0 123.759,-13.298 156.075,-52.561c23.465,-28.509 20.408,-76.36 20.408,-115.342l0,-193.229Z" style="fill:none;stroke:#181818;stroke-width:17.6px;"/><path d="M3402.6,1367.58c-0.525,-23.71 3.454,-45.636 13.41,-65.194" style="fill:none;stroke:#67a255;stroke-width:17.6px;"/><path d="M3844.88,1384.6c0.526,-23.709 -3.453,-45.635 -13.41,-65.194" style="fill:none;stroke:#67a255;stroke-width:17.6px;"/><path d="M3402.51,1371.82c4.679,-25.516 -12.562,-73.917 -28.753,-90.765" style="fill:none;stroke:#67a255;stroke-width:17.6px;"/><path d="M3844.97,1388.84c-4.679,-25.515 12.561,-73.917 28.752,-90.765" style="fill:none;stroke:#67a255;stroke-width:17.6px;"/><path d="M3357.69,1429.91c0,-75.637 117.594,-137.045 262.437,-137.045c144.843,0 262.437,61.408 262.437,137.045c-70.546,-0.648 -157.749,-0.449 -262.437,-0.449c-104.688,0 -192.087,2.297 -262.437,0.449Z" style="fill:#6c4835;"/><clipPath id="_clip9"><path d="M3357.69,1429.91c0,-75.637 117.594,-137.045 262.437,-137.045c144.843,0 262.437,61.408 262.437,137.045c-70.546,-0.648 -157.749,-0.449 -262.437,-0.449c-104.688,0 -192.087,2.297 -262.437,0.449Z"/></clipPath><g clip-path="url(#_clip9)"><path d="M3748.59,1319.41c-30.819,-59.79 -207.44,-56.536 -294.243,-11.793c-86.804,44.743 -132.256,129.61 -101.437,189.4c27.452,-36.853 86.33,-105.658 152.452,-130.353c64.085,-23.934 187.503,-49.916 243.228,-47.254Z" style="fill:#6a442f;"/></g><path d="M3357.69,1429.91c0,-75.637 117.594,-137.045 262.437,-137.045c144.843,0 262.437,61.408 262.437,137.045c-70.546,-0.648 -157.749,-0.449 -262.437,-0.449c-104.688,0 -192.087,2.297 -262.437,0.449Z" style="fill:none;stroke:#181818;stroke-width:17.6px;"/><text x="3521.73px" y="1104.04px" style="font-family:'ComicSansMS', 'Comic Sans MS', cursive;font-size:123.498px;fill:#353535;">RIP</text><path d="M3702.49,1155.1c0,-5.002 -4.061,-9.064 -9.064,-9.064l-178.357,0c-5.003,0 -9.064,4.062 -9.064,9.064c0,5.003 4.061,9.064 9.064,9.064l178.357,0c5.003,0 9.064,-4.061 9.064,-9.064Z" style="fill:#353535;"/><path d="M3635.31,1191.37c0,-5.003 -4.061,-9.064 -9.064,-9.064l-111.177,0c-5.003,0 -9.064,4.061 -9.064,9.064c0,5.002 4.061,9.064 9.064,9.064l111.177,0c5.003,0 9.064,-4.062 9.064,-9.064Z" style="fill:#353535;"/><path d="M3735.68,1191.37c0,-5.003 -4.061,-9.064 -9.064,-9.064l-66.967,0c-5.002,0 -9.064,4.061 -9.064,9.064c0,5.002 4.062,9.064 9.064,9.064l66.967,0c5.003,0 9.064,-4.062 9.064,-9.064Z" style="fill:#353535;"/><text x="2046.13px" y="1616px" style="font-family:'Arial-BoldMT', 'Arial', sans-serif;font-weight:700;font-size:64px;fill:#d9d9d9;">Link-Steuer</text><text x="3429.27px" y="1616px" style="font-family:'Arial-BoldMT', 'Arial', sans-serif;font-weight:700;font-size:64px;fill:#d9d9d9;">Meme-Kultur</text><text x="1589.11px" y="363.794px" style="font-family:'Raleway-Bold', 'Raleway', sans-serif;font-weight:700;font-size:144px;fill:#d9d9d9;">sa<tspan x="1742.47px 1820.66px 1906.34px 1961.35px " y="363.794px 363.794px 363.794px 363.794px ">veth</tspan>ein<tspan x="2257.27px 2312.28px " y="363.794px 363.794px ">te</tspan>rne<tspan x="2626.77px 2681.78px " y="363.794px 363.794px ">t.</tspan>inf<tspan x="2891.59px " y="363.794px ">o</tspan></text><text x="1681.81px" y="538.207px" style="font-family:'Raleway-Medium', 'Raleway', sans-serif;font-weight:500;font-size:72px;fill:#d9d9d9;">Artikel<tspan x="1897.3px 1915.38px " y="538.207px 538.207px "> 1</tspan>3 &amp; 11 in K<tspan x="2276.67px 2320.09px " y="538.207px 538.207px ">ur</tspan>zf<tspan x="2406.27px 2446.38px " y="538.207px 538.207px ">as</tspan>sung erklärt</text></g></svg>