<?xml version="1.0" encoding="UTF-8" standalone="no"?><!DOCTYPE svg PUBLIC "-//W3C//DTD SVG 1.1//EN" "http://www.w3.org/Graphics/SVG/1.1/DTD/svg11.dtd"><svg width="100%" height="100%" viewBox="0 0 1500 1524" version="1.1" xmlns="http://www.w3.org/2000/svg" xmlns:xlink="http://www.w3.org/1999/xlink" xml:space="preserve" xmlns:serif="http://www.serif.com/" style="fill-rule:evenodd;clip-rule:evenodd;stroke-linejoin:round;stroke-miterlimit:1.41421;"><rect id="ArtBoard1" x="0" y="0" width="1500" height="1523.17" style="fill:#142e4d;"/><clipPath id="_clip1"><rect x="0" y="0" width="1500" height="1523.17"/></clipPath><g clip-path="url(#_clip1)"><path d="M-117.278,1443.35c0,0 269.174,-114.157 468.425,-79.147c190.077,33.399 605.733,15.308 776.285,-21.63c248.685,-53.859 652.162,46.874 652.008,70.717l-185.328,327.242l-1711.39,-39.449l0,-257.733Z" style="fill:#ffbf00;"/><text x="386.218px" y="1480.6px" style="font-family:'Raleway-Medium', 'Raleway', sans-serif;font-weight:500;font-size:72px;fill:#142e4d;">www<tspan x="560.818px 575.218px 610.714px 649.45px 687.898px 730.09px 755.074px " y="1480.6px 1480.6px 1480.6px 1480.6px 1480.6px 1480.6px 1480.6px ">.saveth</tspan>ein<tspan x="898.066px 923.05px " y="1480.6px 1480.6px ">te</tspan>rne<tspan x="1076.05px 1101.03px " y="1480.6px 1480.6px ">t.</tspan>inf<tspan x="1199.1px " y="1480.6px ">o</tspan></text><path id="info-circle" d="M305.756,1413.29c-25.066,0 -45.39,20.331 -45.39,45.391c0,25.074 20.324,45.39 45.39,45.39c25.067,0 45.391,-20.316 45.391,-45.39c0,-25.06 -20.324,-45.391 -45.391,-45.391Zm0,20.133c4.246,0 7.688,3.442 7.688,7.687c0,4.246 -3.442,7.687 -7.688,7.687c-4.245,0 -7.687,-3.441 -7.687,-7.687c0,-4.245 3.442,-7.687 7.687,-7.687Zm10.25,46.489c0,1.213 -0.983,2.196 -2.196,2.196l-16.107,0c-1.213,0 -2.196,-0.983 -2.196,-2.196l0,-4.393c0,-1.213 0.983,-2.196 2.196,-2.196l2.197,0l0,-11.714l-2.197,0c-1.213,0 -2.196,-0.983 -2.196,-2.196l0,-4.393c0,-1.213 0.983,-2.196 2.196,-2.196l11.714,0c1.213,0 2.196,0.983 2.196,2.196l0,18.303l2.197,0c1.213,0 2.196,0.983 2.196,2.196l0,4.393Z" style="fill:#142e4d;fill-rule:nonzero;"/><g transform="matrix(1,0,0,1,39.4887,23.528)"><text x="95.164px" y="221.694px" style="font-family:'Raleway-Medium', 'Raleway', sans-serif;font-weight:500;font-size:160px;fill:#ffbf00;">D<tspan x="209.724px 245.884px " y="221.694px 221.694px ">ie</tspan>ses Bil<tspan x="821.084px 922.044px " y="221.694px 221.694px ">d </tspan>is<tspan x="1076.92px " y="221.694px ">t</tspan></text><text x="95.164px" y="381.694px" style="font-family:'Raleway-Medium', 'Raleway', sans-serif;font-weight:500;font-size:160px;fill:#ffbf00;">aufgrund</text><text x="95.164px" y="541.694px" style="font-family:'Raleway-Bold', 'Raleway', sans-serif;font-weight:700;font-size:160px;fill:#ffbf00;">Artikel<tspan x="598.684px 636.924px " y="541.694px 541.694px "> 1</tspan>3</text><text x="845.244px" y="541.694px" style="font-family:'Raleway-Medium', 'Raleway', sans-serif;font-weight:500;font-size:160px;fill:#ffbf00;">nich<tspan x="1157.08px " y="541.694px ">t</tspan></text><text x="95.164px" y="701.694px" style="font-family:'Raleway-Medium', 'Raleway', sans-serif;font-weight:500;font-size:160px;fill:#ffbf00;">verfügbar<tspan x="824.764px " y="701.694px ">.</tspan></text></g></g></svg>