<?xml version="1.0" encoding="UTF-8" standalone="no"?><!DOCTYPE svg PUBLIC "-//W3C//DTD SVG 1.1//EN" "http://www.w3.org/Graphics/SVG/1.1/DTD/svg11.dtd"><svg width="100%" height="100%" viewBox="0 0 260 260" version="1.1" xmlns="http://www.w3.org/2000/svg" xmlns:xlink="http://www.w3.org/1999/xlink" xml:space="preserve" xmlns:serif="http://www.serif.com/" style="fill-rule:evenodd;clip-rule:evenodd;stroke-linejoin:round;stroke-miterlimit:1.41421;"><path d="M70.078,7.725c0,0 -21.214,-4.454 -27.521,-3.731c-4.338,0.497 -8.141,4.723 -10.319,8.068c-2.178,3.345 -1.891,9.379 -2.749,12.001c-0.109,0.334 8.2,-0.799 8.078,-0.463c-0.294,0.803 -7.558,1.737 -7.789,2.549c-0.093,0.327 1.025,1.559 0.94,1.885c-0.636,2.43 0.451,9.932 0.07,11.197c-0.182,0.606 0.943,0.906 1.171,1.497c0.461,1.196 1.195,6.058 1.596,5.679c0.224,-0.211 3.379,0.03 3.375,0.306c-0.005,0.268 -3.192,1.19 -3.19,1.425c0.017,3.588 5.844,5.116 9.432,5.189c4.375,0.09 16.82,-4.65 16.82,-4.65l10.086,-40.952Z" style="fill:#c4a844;"/><path d="M62.173,25.6c-4.411,-3.287 -11.868,-0.44 -16.502,0c-7.247,0.687 -6.941,17.357 -2.148,20.787c4.597,3.288 26.23,2.94 29.338,-0.524c3.108,-3.465 -6.157,-16.886 -10.688,-20.263Z" style="fill:#9e8531;"/><path d="M63.779,32.674c0,0 -18.657,0.37 -18.733,1.051c-0.06,0.543 2.141,5.26 1.555,7.414c-0.873,3.204 -1.169,4.838 -2.713,5.497c-0.814,0.347 16.967,5.401 30.231,0.89l-10.34,-14.852Z" style="fill:#89742b;"/><path d="M48.31,27.312c1.5,0.367 6.175,0.046 6.355,0.387c0.158,0.3 -4.189,-0.194 -5.448,0.923c-0.177,0.157 0.233,0.517 0.175,0.737c-0.814,3.101 1.008,12.95 0.391,16.945c-0.414,2.678 -6.738,6.437 -4.092,7.025c2.882,0.639 21.385,-3.186 21.385,-3.186l22.494,0.651c0,0 -4.177,-28.164 -12.577,-29.034c-3.881,-0.402 -26.557,2.762 -31.328,3.737c-0.379,0.077 1.607,1.561 2.645,1.815Z" style="fill:#b09537;"/><path d="M208.439,7.338c-15.185,-7.295 -136.283,-8.595 -164.676,-3.798c-1.538,0.26 -1.757,0.515 -1.757,0.515c0.563,-1.2 16.92,6.714 18.899,12.871c2.092,6.506 0.551,19.64 4.549,21.414c0.526,0.233 14.999,-0.383 14.398,0.405c-0.034,0.046 -2.772,0.053 -5.826,0.304c-2.86,0.235 -6.006,0.725 -5.994,0.813c0.521,3.993 -1.973,5.344 -2.433,6.789c-0.067,0.213 -0.009,1.658 0.023,1.821c0.26,1.307 2.89,3.099 3.398,3.866c0.742,1.12 -3.029,-0.272 -3.026,1.123c0.013,6.359 -1.047,5.727 -1.058,11.742c-0.018,9.628 -2.756,22.109 -2.829,31.84c-0.061,8.039 -5.197,35.537 -6.603,43.7c-1.844,10.708 -5.653,45.002 -6.833,51.38c-0.131,0.709 -1.148,12.538 -1.096,13.243c0.015,0.202 5.831,0.773 5.846,0.974c0.013,0.19 -5.942,0.412 -5.928,0.601c0.029,0.411 -0.109,3 -0.081,3.406c0.016,0.223 6.109,-0.099 6.124,0.123c0.039,0.564 -6.463,0.914 -6.426,1.468c0.499,7.589 0.162,4.551 0.63,9.9c0.317,3.619 1.142,7.219 1.277,9.804c0.363,6.938 4.789,14.95 7.686,19.374c2.202,3.363 9.101,7.07 9.697,7.17c10.822,1.82 130.315,-5.019 153.67,-3.439c4.631,0.313 8.194,-7.765 8.517,-11.018c0.388,-3.922 -2.202,-7.931 -4.85,-8.078c-3.367,-0.187 -7.284,1.185 -9.608,-0.82c-2.323,-2.005 -5.698,-6.421 -4.331,-11.21c0.166,-0.582 -9.82,-0.853 -9.655,-1.47c0.239,-0.898 8.864,-0.588 9.108,-1.558c0.217,-0.863 0.765,-1.487 0.254,-2.28c-2.285,-3.553 -3.405,-5.999 -3.323,-6.932c0.785,-8.977 1.51,-15.264 2.352,-23.942c0.061,-0.639 2.257,-3.594 1.721,-3.244c-0.268,0.174 1.928,-24.001 4.128,-35.815c1.303,-6.998 3.499,-26.526 4.772,-48.94c0.059,-1.041 1.95,-8.952 3.21,-10.58c0.515,-0.666 0.477,-3.207 0.476,-4.463c-0.003,-3.651 0.398,-5.99 0.026,-8.938c-0.025,-0.195 -7.627,-3.407 -7.652,-3.601c-0.053,-0.43 7.641,1.187 7.592,0.76c-0.054,-0.467 0.027,-4.018 -0.025,-4.482c-0.051,-0.453 -13.782,1.243 -13.831,0.794c-0.048,-0.434 13.702,-1.974 13.749,-2.406c0.557,-5.113 -0.303,-26.39 -4.568,-42.149c-2.252,-8.319 -6.652,-15.577 -9.693,-17.037Z" style="fill:#cdb45f;"/><path d="M224.185,236.042l-146.303,2.32c-5.323,0.581 -4.997,3.217 -5.403,4.885c-0.245,1.009 -0.444,3.804 0.152,3.112c5.6,-6.505 8.959,-6.681 7.435,3.579l5.355,0.899l-5.768,0.075c-4.839,5.612 -8.321,6.319 -11.887,7.328l153.554,-3.075c5.364,-3.603 11.655,-14.278 2.865,-19.123Z" style="fill:#d7c37f;"/><text x="91.183px" y="42.12px" style="font-family:'Raleway-ExtraBoldItalic', 'Raleway', sans-serif;font-weight:800;font-style:italic;font-size:40.727px;">11&amp;13</text><path d="M158.654,58.775l-69.306,0l-0.891,4.197l69.306,0l0.891,-4.197Z" style="fill:#89742b;"/><path d="M151.306,140.12l-69.306,0l-0.374,4.197l69.306,0l0.374,-4.197Z" style="fill:#89742b;"/><path d="M203.296,58.775l-38.587,0l-0.892,4.197l38.588,0l0.891,-4.197Z" style="fill:#89742b;"/><path d="M195.949,140.12l-38.588,0l-0.374,4.197l38.588,0l0.374,-4.197Z" style="fill:#89742b;"/><path d="M136.765,68.209l-49.781,0l-0.582,4.197l49.782,0l0.581,-4.197Z" style="fill:#89742b;"/><path d="M130.58,149.554l-49.782,0l-0.064,4.197l49.781,0l0.065,-4.197Z" style="fill:#89742b;"/><path d="M132.868,103.705l-49.782,0l-0.072,4.197l49.781,0l0.073,-4.197Z" style="fill:#89742b;"/><path d="M128.622,216.308l-49.781,0l0.654,4.198l49.781,0l-0.654,-4.198Z" style="fill:#89742b;"/><path d="M128.622,170.459l-49.781,0l0.215,4.198l49.782,0l-0.216,-4.198Z" style="fill:#89742b;"/><path d="M195.257,86.436l-14.578,0l-0.581,4.197l14.577,0l0.582,-4.197Z" style="fill:#89742b;"/><path d="M188.025,199.04l-14.578,0l0.145,4.197l14.577,0l-0.144,-4.197Z" style="fill:#89742b;"/><path d="M81.929,122.101l14.577,0l-0.191,4.197l-14.577,0l0.191,-4.197Z" style="fill:#89742b;"/><path d="M77.839,188.856l14.577,0l0.097,4.197l-14.578,0l-0.096,-4.197Z" style="fill:#89742b;"/><path d="M115.727,78.122l-30.135,0l-0.582,4.197l30.135,0l0.582,-4.197Z" style="fill:#89742b;"/><path d="M110.763,159.467l-30.136,0l-0.064,4.197l30.135,0l0.065,-4.197Z" style="fill:#89742b;"/><path d="M113.033,113.618l-30.136,0l-0.072,4.197l30.135,0l0.073,-4.197Z" style="fill:#89742b;"/><path d="M108.362,180.372l-30.136,0l0.215,4.198l30.136,0l-0.215,-4.198Z" style="fill:#89742b;"/><path d="M187.677,78.122l-66.134,0l-0.582,4.197l66.135,0l0.581,-4.197Z" style="fill:#89742b;"/><path d="M182.713,159.467l-66.135,0l-0.064,4.197l66.134,0l0.065,-4.197Z" style="fill:#89742b;"/><path d="M184.983,113.618l-66.135,0l-0.072,4.197l66.134,0l0.073,-4.197Z" style="fill:#89742b;"/><path d="M180.312,180.372l-66.135,0l0.215,4.198l66.135,0l-0.215,-4.198Z" style="fill:#89742b;"/><path d="M194.543,94.469l-110.862,0l0.132,4.197l110.862,0l-0.132,-4.197Z" style="fill:#89742b;"/><path d="M188.701,207.073l-110.862,0l0.858,4.197l110.862,0l-0.858,-4.197Z" style="fill:#89742b;"/><path d="M150.729,86.436l-66.466,0l-0.582,4.197l66.466,0l0.582,-4.197Z" style="fill:#89742b;"/><path d="M143.497,199.04l-66.466,0l0.144,4.197l66.466,0l-0.144,-4.197Z" style="fill:#89742b;"/><path d="M124.361,122.101l66.465,0l-0.191,4.197l-66.466,0l0.192,-4.197Z" style="fill:#89742b;"/><path d="M120.27,188.856l66.466,0l0.097,4.197l-66.466,0l-0.097,-4.197Z" style="fill:#89742b;"/><path d="M178.739,68.209l-36.686,0l-0.582,4.197l36.686,0l0.582,-4.197Z" style="fill:#89742b;"/><path d="M172.553,149.554l-36.686,0l-0.064,4.197l36.685,0l0.065,-4.197Z" style="fill:#89742b;"/><path d="M174.841,103.705l-36.686,0l-0.072,4.197l36.686,0l0.072,-4.197Z" style="fill:#89742b;"/><path d="M170.596,216.308l-36.686,0l0.654,4.198l36.686,0l-0.654,-4.198Z" style="fill:#89742b;"/><path d="M171.744,170.459l-36.685,0l0.215,4.198l36.685,0l-0.215,-4.198Z" style="fill:#89742b;"/><path d="M118.496,131.086l-36.686,0l-0.072,4.197l36.685,0l0.073,-4.197Z" style="fill:#89742b;"/><path d="M199.429,68.209l-17.776,0l-0.581,4.197l17.775,0l0.582,-4.197Z" style="fill:#89742b;"/><path d="M193.244,149.554l-17.776,0l-0.065,4.197l17.776,0l0.065,-4.197Z" style="fill:#89742b;"/><path d="M195.531,103.705l-17.775,0l-0.073,4.197l17.776,0l0.072,-4.197Z" style="fill:#89742b;"/><path d="M191.286,216.308l-17.775,0l0.653,4.198l17.776,0l-0.654,-4.198Z" style="fill:#89742b;"/><path d="M192.435,170.459l-17.776,0l0.215,4.198l17.776,0l-0.215,-4.198Z" style="fill:#89742b;"/><path d="M174.37,86.436l-17.776,0l-0.582,4.197l17.776,0l0.582,-4.197Z" style="fill:#89742b;"/><path d="M167.138,199.04l-17.776,0l0.144,4.197l17.776,0l-0.144,-4.197Z" style="fill:#89742b;"/><path d="M147.718,131.086l-24.848,0l-0.301,4.197l24.847,0l0.302,-4.197Z" style="fill:#89742b;"/><path d="M100.72,122.101l17.776,0l-0.192,4.197l-17.775,0l0.191,-4.197Z" style="fill:#89742b;"/><path d="M96.63,188.856l17.776,0l0.096,4.197l-17.776,0l-0.096,-4.197Z" style="fill:#89742b;"/></svg>